<?xml version="1.0" encoding="UTF-8" standalone="no"?>
<!-- Created with Inkscape (http://www.inkscape.org/) -->

<svg
   width="48"
   height="48"
   viewBox="0 0 48 48.000002"
   version="1.1"
   id="svg5"
   inkscape:version="1.3.2 (091e20ef0f, 2023-11-25)"
   xml:space="preserve"
   sodipodi:docname="32X.svg"
   xmlns:inkscape="http://www.inkscape.org/namespaces/inkscape"
   xmlns:sodipodi="http://sodipodi.sourceforge.net/DTD/sodipodi-0.dtd"
   xmlns="http://www.w3.org/2000/svg"
   xmlns:svg="http://www.w3.org/2000/svg"><sodipodi:namedview
     id="namedview7"
     pagecolor="#505050"
     bordercolor="#eeeeee"
     borderopacity="1"
     inkscape:pageshadow="0"
     inkscape:pageopacity="0"
     inkscape:pagecheckerboard="0"
     inkscape:document-units="px"
     showgrid="false"
     units="px"
     inkscape:zoom="9.7709385"
     inkscape:cx="16.426262"
     inkscape:cy="27.121243"
     inkscape:window-width="1896"
     inkscape:window-height="1035"
     inkscape:window-x="10"
     inkscape:window-y="31"
     inkscape:window-maximized="1"
     inkscape:current-layer="layer1"
     inkscape:showpageshadow="0"
     inkscape:deskcolor="#d1d1d1"
     showguides="true"><sodipodi:guide
       position="-3.9843082,22.05377"
       orientation="0,1"
       id="guide1"
       inkscape:locked="false" /><sodipodi:guide
       position="24,24"
       orientation="-1,0"
       id="guide2"
       inkscape:locked="false"
       inkscape:label=""
       inkscape:color="rgb(0,134,229)" /></sodipodi:namedview><defs
     id="defs2" /><g
     inkscape:label="Layer 1"
     inkscape:groupmode="layer"
     id="layer1"><g
       id="g15"><path
         style="fill:none;stroke:#ffffff;stroke-width:0.999997px;stroke-linecap:round;stroke-linejoin:round;stroke-opacity:1"
         d="M 10.292831,34.275633 C 5.5002442,35.449511 2.1652337,31.05959 2.527151,26.948132 2.8890683,22.836674 8.0562459,13.534246 24,13.534246 c 15.943754,0 21.110932,9.302428 21.472849,13.413886 0.361917,4.111458 -2.973093,8.501379 -7.76568,7.327501 C 33.276203,33.190329 32.162495,29.295784 24,29.295784 c -8.162495,0 -9.276203,3.894545 -13.707169,4.979849 z"
         id="path2"
         sodipodi:nodetypes="sscsscs" /><ellipse
         style="fill:none;stroke:#ffffff;stroke-width:0.999997;stroke-linecap:round;stroke-linejoin:round;stroke-dasharray:none"
         id="path2-6"
         cx="13.005461"
         cy="22.537569"
         rx="4.2565732"
         ry="4.2779274" /><path
         id="circle2"
         style="fill:none;stroke:#ffffff;stroke-width:0.999997;stroke-linecap:round;stroke-linejoin:round;stroke-dasharray:none"
         d="m 13.005465,18.24901 a 4.2677998,4.2887962 0 0 0 -1.010739,0.132213 v 2.357095 c 0,0.438181 -0.350093,0.789996 -0.78613,0.789996 H 8.8694595 a 4.2677998,4.2887962 0 0 0 -0.1315666,1.009262 4.2677998,4.2887962 0 0 0 0.1315666,1.018936 h 2.3423495 c 0.436033,0 0.786125,0.351815 0.786125,0.789997 v 2.347421 a 4.2677998,4.2887962 0 0 0 1.007531,0.132213 4.2677998,4.2887962 0 0 0 1.007529,-0.132213 v -2.350653 c 0,-0.438181 0.353304,-0.79322 0.789337,-0.79322 h 2.339138 a 4.2677998,4.2887962 0 0 0 0.131551,-1.012488 4.2677998,4.2887962 0 0 0 -0.121943,-1.012488 h -2.355163 c -0.436038,0 -0.786132,-0.351818 -0.786134,-0.789995 v -2.363542 a 4.2677998,4.2887962 0 0 0 -1.004318,-0.122541 z" /><ellipse
         style="fill:none;stroke:#ffffff;stroke-width:0.999997;stroke-linecap:round;stroke-linejoin:round"
         id="path3"
         cx="30.984066"
         cy="25.810955"
         rx="1.4087769"
         ry="1.4080455" /><ellipse
         style="fill:none;stroke:#ffffff;stroke-width:0.999997;stroke-linecap:round;stroke-linejoin:round"
         id="circle5"
         cx="29.664316"
         cy="21.56645"
         rx="0.80944228"
         ry="0.80902207" /><ellipse
         style="fill:none;stroke:#ffffff;stroke-width:0.999997;stroke-linecap:round;stroke-linejoin:round"
         id="circle6"
         cx="32.93705"
         cy="26.443806"
         transform="matrix(0.99717615,-0.07509813,0.07517572,0.9971703,0,0)"
         rx="1.4087727"
         ry="1.4080496" /><ellipse
         style="fill:none;stroke:#ffffff;stroke-width:0.999997;stroke-linecap:round;stroke-linejoin:round"
         id="circle7"
         cx="31.617304"
         cy="22.199289"
         transform="matrix(0.99717615,-0.07509813,0.07517572,0.9971703,0,0)"
         rx="0.8094399"
         ry="0.80902439" /><ellipse
         style="fill:none;stroke:#ffffff;stroke-width:0.999998;stroke-linecap:round;stroke-linejoin:round"
         id="circle8"
         cx="32.434353"
         cy="31.447245"
         transform="matrix(0.97052649,-0.24099446,0.24123031,0.97046789,0,0)"
         rx="1.4087343"
         ry="1.408088" /><ellipse
         style="fill:none;stroke:#ffffff;stroke-width:0.999998;stroke-linecap:round;stroke-linejoin:round"
         id="circle9"
         cx="31.114643"
         cy="27.20261"
         transform="matrix(0.97052649,-0.24099446,0.24123031,0.97046789,0,0)"
         rx="0.80941784"
         ry="0.80904645" /><path
         style="fill:none;stroke:#ffffff;stroke-width:1px;stroke-linecap:round;stroke-linejoin:round;stroke-opacity:1"
         d="M 21.829712,21.739324 H 24"
         id="path12" /><path
         id="path14"
         style="fill:none;stroke:#ffffff;stroke-width:1px;stroke-linecap:round;stroke-linejoin:round;stroke-opacity:1"
         d="m 24,13.535156 c -2.813072,0 -5.284069,0.293402 -7.458984,0.792969 l 1.455078,1.753906 c 1.80801,-0.31728 3.799752,-0.5 6.003906,-0.5 2.201837,0 4.191538,0.183347 5.998047,0.5 l 1.455078,-1.755859 C 29.279641,13.827443 26.810505,13.535156 24,13.535156 Z" /></g></g></svg>
