<?xml version="1.0" encoding="UTF-8" standalone="no"?>
<!-- Created with Inkscape (http://www.inkscape.org/) -->

<svg
   width="48"
   height="48"
   viewBox="0 0 48 48.000002"
   version="1.1"
   id="svg5"
   inkscape:version="1.3.2 (091e20ef0f, 2023-11-25)"
   xml:space="preserve"
   sodipodi:docname="7800.svg"
   xmlns:inkscape="http://www.inkscape.org/namespaces/inkscape"
   xmlns:sodipodi="http://sodipodi.sourceforge.net/DTD/sodipodi-0.dtd"
   xmlns="http://www.w3.org/2000/svg"
   xmlns:svg="http://www.w3.org/2000/svg"><sodipodi:namedview
     id="namedview7"
     pagecolor="#505050"
     bordercolor="#eeeeee"
     borderopacity="1"
     inkscape:pageshadow="0"
     inkscape:pageopacity="0"
     inkscape:pagecheckerboard="0"
     inkscape:document-units="px"
     showgrid="false"
     units="px"
     inkscape:zoom="11.773869"
     inkscape:cx="22.210202"
     inkscape:cy="19.704653"
     inkscape:window-width="1234"
     inkscape:window-height="1035"
     inkscape:window-x="10"
     inkscape:window-y="31"
     inkscape:window-maximized="1"
     inkscape:current-layer="layer1"
     inkscape:showpageshadow="0"
     inkscape:deskcolor="#d1d1d1"
     showguides="true"><sodipodi:guide
       position="24,39.659912"
       orientation="-1,0"
       id="guide1"
       inkscape:locked="false"
       inkscape:label=""
       inkscape:color="rgb(0,134,229)" /></sodipodi:namedview><defs
     id="defs2" /><g
     inkscape:label="Layer 1"
     inkscape:groupmode="layer"
     id="layer1"><g
       id="g8"
       transform="matrix(1.6173964,0,0,1.6413569,-14.817514,5.8745467)"
       style="stroke-width:0.613748"><path
         id="path1"
         style="fill:none;stroke:#ffffff;stroke-width:0.613748px;stroke-linecap:round;stroke-linejoin:round;stroke-opacity:1"
         d="M 10.707031,4.6230469 V 17.462891 H 24 25.5625 l -2.390625,-2.722657 c -0.543151,-0.61878 -0.480339,-1.558368 0.140625,-2.099609 0.620964,-0.541241 1.566223,-0.478154 2.109375,0.140625 l 4.109375,4.681641 h 2.417969 l -2.390625,-2.722657 c -0.543153,-0.618781 -0.480341,-1.558367 0.140625,-2.099609 0.620965,-0.541242 1.564268,-0.478155 2.107422,0.140625 l 4.111328,4.681641 h 1.375 V 4.6230469 H 24 Z" /><circle
         style="fill:none;stroke:#ffffff;stroke-width:0.613747;stroke-linecap:round;stroke-linejoin:round"
         id="path2"
         cx="15.424795"
         cy="8.4082966"
         r="2.645705" /><circle
         style="fill:none;stroke:#ffffff;stroke-width:0.613747;stroke-linecap:round;stroke-linejoin:round"
         id="circle2"
         cx="15.424795"
         cy="8.4082966"
         r="1.1791474" /><path
         id="path3"
         style="fill:none;stroke:#ffffff;stroke-width:0.613748;stroke-linecap:round;stroke-linejoin:round"
         d="m 25.280059,14.880999 a 1.4885281,1.4937842 89.999984 0 1 -2.107828,-0.140395 1.4885281,1.4937842 89.999984 0 1 0.140892,-2.10041 1.4885281,1.4937842 89.999984 0 1 2.107826,0.140395 1.4885281,1.4937842 89.999984 0 1 -0.14089,2.10041 z" /><path
         id="path5"
         style="fill:none;stroke:#ffffff;stroke-width:0.613748;stroke-linecap:round;stroke-linejoin:round"
         d="m 31.666609,14.880999 a 1.4885281,1.4937842 89.999984 0 1 -2.107828,-0.140395 1.4885281,1.4937842 89.999984 0 1 0.140892,-2.10041 1.4885281,1.4937842 89.999984 0 1 2.107826,0.140395 1.4885281,1.4937842 89.999984 0 1 -0.14089,2.10041 z" /><path
         style="fill:none;stroke:#ffffff;stroke-width:0.613748px;stroke-linecap:round;stroke-linejoin:miter;stroke-opacity:1"
         d="M 13.640998,16.148169 23.499999,6.2891679"
         id="path7" /><path
         style="fill:none;stroke:#ffffff;stroke-width:0.613748px;stroke-linecap:butt;stroke-linejoin:miter;stroke-opacity:1"
         d="M 25.5625,17.462891 H 35.917969"
         id="path8" /></g></g></svg>
