<?xml version="1.0" encoding="UTF-8" standalone="no"?>
<!-- Created with Inkscape (http://www.inkscape.org/) -->

<svg
   width="48"
   height="48"
   viewBox="0 0 48 48.000002"
   version="1.1"
   id="svg5"
   inkscape:version="1.3.2 (091e20ef0f, 2023-11-25)"
   xml:space="preserve"
   sodipodi:docname="atari.svg"
   xmlns:inkscape="http://www.inkscape.org/namespaces/inkscape"
   xmlns:sodipodi="http://sodipodi.sourceforge.net/DTD/sodipodi-0.dtd"
   xmlns="http://www.w3.org/2000/svg"
   xmlns:svg="http://www.w3.org/2000/svg"><sodipodi:namedview
     id="namedview7"
     pagecolor="#505050"
     bordercolor="#eeeeee"
     borderopacity="1"
     inkscape:pageshadow="0"
     inkscape:pageopacity="0"
     inkscape:pagecheckerboard="0"
     inkscape:document-units="px"
     showgrid="false"
     units="px"
     inkscape:zoom="6.4290154"
     inkscape:cx="2.6442618"
     inkscape:cy="11.976951"
     inkscape:window-width="1896"
     inkscape:window-height="1035"
     inkscape:window-x="10"
     inkscape:window-y="31"
     inkscape:window-maximized="1"
     inkscape:current-layer="layer1"
     inkscape:showpageshadow="0"
     inkscape:deskcolor="#d1d1d1"
     showguides="true" /><defs
     id="defs2"><inkscape:path-effect
       effect="fillet_chamfer"
       id="path-effect4"
       is_visible="true"
       lpeversion="1"
       nodesatellites_param="F,0,0,1,0,0,0,1 @ F,0,1,1,0,2.6326558,0,1 @ F,0,1,1,0,2.6326558,0,1 @ F,0,1,1,0,2.6326558,0,1 @ F,0,0,1,0,0,0,1"
       radius="3"
       unit="px"
       method="auto"
       mode="F"
       chamfer_steps="1"
       flexible="false"
       use_knot_distance="true"
       apply_no_radius="true"
       apply_with_radius="true"
       only_selected="true"
       hide_knots="false" /><inkscape:path-effect
       effect="fillet_chamfer"
       id="path-effect17"
       is_visible="true"
       lpeversion="1"
       nodesatellites_param="F,0,0,1,0,0,0,1 @ F,0,0,1,0,2,0,1 @ F,0,0,1,0,2,0,1 @ F,0,0,1,0,0,0,1"
       radius="2"
       unit="px"
       method="auto"
       mode="F"
       chamfer_steps="1"
       flexible="false"
       use_knot_distance="true"
       apply_no_radius="true"
       apply_with_radius="true"
       only_selected="false"
       hide_knots="false" /><inkscape:path-effect
       effect="fillet_chamfer"
       id="path-effect16"
       is_visible="true"
       lpeversion="1"
       nodesatellites_param="F,0,1,1,0,0,0,1 @ F,0,1,1,0,3,0,1 @ F,0,1,1,0,3,0,1 @ F,0,0,1,0,0,0,1 @ F,0,1,1,0,3,0,1 @ F,0,1,1,0,3,0,1 @ F,0,0,1,0,0,0,1"
       radius="3"
       unit="px"
       method="auto"
       mode="F"
       chamfer_steps="1"
       flexible="false"
       use_knot_distance="true"
       apply_no_radius="true"
       apply_with_radius="true"
       only_selected="true"
       hide_knots="false" /></defs><g
     inkscape:label="Layer 1"
     inkscape:groupmode="layer"
     id="layer1"><g
       id="g6"><path
         style="fill:none;stroke:#fff;stroke-width:0.999984;stroke-linecap:round;stroke-linejoin:round"
         d="m 20.692852,18.153565 c -4.618936,0.870094 -7.977594,3.515066 -7.977594,6.644481 0,3.837805 5.050829,6.948474 11.283378,6.948474 6.232547,0 11.286107,-3.110669 11.286107,-6.948474 0,-3.153844 -3.410647,-5.81604 -8.085855,-6.664944"
         id="path2"
         sodipodi:nodetypes="csssc" /><path
         id="ellipse3"
         style="fill:none;stroke:#fff;stroke-width:0.999998;stroke-linecap:round;stroke-linejoin:round"
         d="m 20.805585,20.242041 c -2.854036,0.747087 -4.851761,2.463413 -4.851761,4.463441 0,2.686231 3.600261,4.863246 8.044614,4.863246 4.444354,0 8.047738,-2.177015 8.047738,-4.863246 0,-1.999157 -1.995712,-3.712711 -4.848638,-4.460317"
         sodipodi:nodetypes="csssc" /><path
         id="path13"
         style="fill:none;stroke:#fff;stroke-width:0.999998px;stroke-linecap:round;stroke-linejoin:round;stroke-opacity:1"
         d="m 27.198171,4.0968582 4.65e-4,18.6886918 -1.56472,1.596485 H 24.003125 22.372334 L 20.807255,22.78555 20.807362,4.0968582 m 1.597191,-1.5968586 -1.597191,1.5968586 1.565178,1.5648536 h 1.630227 1.630226 L 27.198171,4.0968582 25.600979,2.4999996 h -1.598212 z" /><path
         id="path1"
         style="fill:none;stroke:#fff;stroke-width:0.838912px;stroke-linecap:round;stroke-linejoin:round;stroke-opacity:1"
         d="m 20.792696,14.580152 h -8.23466 a 3,3 135 0 0 -3.0000003,3 v 18.842693 a 3,3 45 0 0 3.0000003,3 h 11.439188 11.439189 a 3,3 135 0 0 3,-3 V 17.580152 a 3,3 45 0 0 -3,-3 l -8.22839,0"
         inkscape:path-effect="#path-effect16"
         inkscape:original-d="M 20.792696,14.580152 H 9.5580357 V 39.422845 H 23.997224 38.436413 V 14.580152 h -11.22839"
         transform="matrix(1.1914459,0,0,1.1925745,-4.5913934,-7.2959127)"
         sodipodi:nodetypes="ccccccc" /><path
         id="path17"
         style="fill:none;stroke:#fff;stroke-width:0.999998;stroke-linecap:round;stroke-linejoin:round"
         d="m 20.806224,22.311169 c -1.095373,0.538228 -1.793204,1.34841 -1.793204,2.25431 0,1.621509 2.232472,2.934121 4.986981,2.934121 2.75451,0 4.98698,-1.312612 4.98698,-2.934121 0,-0.905072 -0.695469,-1.714489 -1.789296,-2.252357"
         sodipodi:nodetypes="csssc" /><path
         id="path3"
         style="fill:none;stroke:#fff;stroke-width:0.838912px;stroke-linecap:round;stroke-linejoin:round;stroke-opacity:1"
         d="m 9.5580357,14.580152 v 22.210037 a 2.6326558,2.6326558 45 0 0 2.6326563,2.632656 h 9.173876 l 14.439189,0 a 2.6326558,2.6326558 135 0 0 2.632656,-2.632656 V 14.580152"
         inkscape:path-effect="#path-effect4"
         inkscape:original-d="M 9.5580357,14.580152 V 39.422845 H 23.997224 38.436413 V 14.580152"
         transform="matrix(1.1914459,0,0,1.1925745,-4.5913934,-1.514979)"
         sodipodi:nodetypes="ccccc" /><path
         id="path5"
         style="fill:none;stroke:#fff;stroke-width:0.999998;stroke-linecap:round;stroke-linejoin:round"
         d="m 12.041016,13.2029 c -1.367006,0 -2.4746097,0.59596 -2.4746098,1.332032 0,0.736071 1.1076058,1.332031 2.4746098,1.332031 1.367005,0 2.476562,-0.59596 2.476562,-1.332031 0,-0.736072 -1.109559,-1.332032 -2.476562,-1.332032 z" /></g></g></svg>
