<?xml version="1.0" encoding="UTF-8" standalone="no"?>
<svg
   id="Layer_2"
   data-name="Layer 2"
   viewBox="0 0 48 48"
   version="1.1"
   sodipodi:docname="dos.svg"
   xml:space="preserve"
   inkscape:version="1.3.2 (091e20ef0f, 2023-11-25)"
   xmlns:inkscape="http://www.inkscape.org/namespaces/inkscape"
   xmlns:sodipodi="http://sodipodi.sourceforge.net/DTD/sodipodi-0.dtd"
   xmlns="http://www.w3.org/2000/svg"
   xmlns:svg="http://www.w3.org/2000/svg"><sodipodi:namedview
     id="namedview1"
     pagecolor="#505050"
     bordercolor="#eeeeee"
     borderopacity="1"
     inkscape:showpageshadow="0"
     inkscape:pageopacity="0"
     inkscape:pagecheckerboard="0"
     inkscape:deskcolor="#d1d1d1"
     inkscape:zoom="7.1287594"
     inkscape:cx="18.025577"
     inkscape:cy="18.095715"
     inkscape:window-width="1896"
     inkscape:window-height="1035"
     inkscape:window-x="10"
     inkscape:window-y="31"
     inkscape:window-maximized="1"
     inkscape:current-layer="Layer_2" /><defs
     id="defs1"><style
       id="style1">.cls-1{fill:none;stroke:#fff;stroke-linecap:round;stroke-linejoin:round;}</style><style
       id="style1-7">.f{fill:none;stroke:#fff;stroke-linecap:round;stroke-linejoin:round;}</style></defs><g
     id="g3"
     transform="matrix(0.49511708,0,0,0.47659044,5.0566274,15.879683)"
     style="stroke-width:2.0586"><path
       style="fill:none;stroke:#fff;stroke-width:2.0586;stroke-linecap:round;stroke-linejoin:round"
       d="M 35.589443,22.050207 H 24.268651"
       id="path3" /><path
       style="fill:none;stroke:#fff;stroke-width:2.0586;stroke-linecap:round;stroke-linejoin:round"
       d="M 12.58593,9.8119682 23.174448,15.931088 12.58593,22.050207"
       id="path2" /></g><path
     style="fill:none;stroke:#fff;stroke-width:1;stroke-linecap:round;stroke-linejoin:round"
     d="m 9.9514256,10.911265 c -0.8991079,-0.0047 -1.6291657,0.725363 -1.6244705,1.624471 l 0,15.633081 c -0.00469,0.899108 0.7253628,1.629165 1.6244705,1.62447 H 37.845185 c 0.899108,0.0047 1.629165,-0.725362 1.62447,-1.62447 V 12.535736 c 0.0047,-0.899108 -0.725362,-1.629166 -1.62447,-1.624471 z"
     id="path1"
     sodipodi:nodetypes="ccccccccc" /><path
     id="c"
     class="f"
     d="M 39.469555,33.5304 H 8.3269551 c -1.6174,0 -2.9287,-1.3106 -2.9287,-2.9274 V 10.4746 c 0,-1.6167 1.3112,-2.9274 2.9287,-2.9274 H 39.469655 c 1.6174,0 2.9287,1.3106 2.9287,2.9274 V 30.603 c 0,1.6167 -1.3112,2.9274 -2.9287,2.9274 v 0" /><path
     id="d"
     class="f"
     d="m 27.883355,33.5304 v 2.8603 c 0,2.8603 5.1394,4.0621 5.1394,4.0621 h -18.249 c 0,0 5.1018,-1.2018 5.1018,-4.0621 v -2.8603" /></svg>
