<?xml version="1.0" encoding="UTF-8" standalone="no"?>
<!-- Created with Inkscape (http://www.inkscape.org/) -->

<svg
   width="48"
   height="48"
   viewBox="0 0 48 48.000002"
   version="1.1"
   id="svg5"
   inkscape:version="1.3.2 (091e20ef0f, 2023-11-25)"
   xml:space="preserve"
   sodipodi:docname="gbc.svg"
   xmlns:inkscape="http://www.inkscape.org/namespaces/inkscape"
   xmlns:sodipodi="http://sodipodi.sourceforge.net/DTD/sodipodi-0.dtd"
   xmlns="http://www.w3.org/2000/svg"
   xmlns:svg="http://www.w3.org/2000/svg"><sodipodi:namedview
     id="namedview7"
     pagecolor="#505050"
     bordercolor="#eeeeee"
     borderopacity="1"
     inkscape:pageshadow="0"
     inkscape:pageopacity="0"
     inkscape:pagecheckerboard="0"
     inkscape:document-units="px"
     showgrid="false"
     units="px"
     inkscape:zoom="5.6856101"
     inkscape:cx="-13.279138"
     inkscape:cy="25.854745"
     inkscape:window-width="1896"
     inkscape:window-height="1035"
     inkscape:window-x="10"
     inkscape:window-y="31"
     inkscape:window-maximized="1"
     inkscape:current-layer="layer1"
     inkscape:showpageshadow="0"
     inkscape:deskcolor="#d1d1d1"
     showguides="true"><sodipodi:guide
       position="24,28.000001"
       orientation="-1,0"
       id="guide1"
       inkscape:locked="false"
       inkscape:label=""
       inkscape:color="rgb(0,134,229)" /></sodipodi:namedview><defs
     id="defs2"><style
       id="style1">.a{fill:none;stroke:#fff;stroke-linecap:round;stroke-linejoin:round;}.b{fill:#fff;}</style></defs><g
     inkscape:label="Layer 1"
     inkscape:groupmode="layer"
     id="layer1"><g
       id="g19"
       transform="matrix(-0.89363233,0,0,0.89710214,45.446829,1.4606828)"
       style="stroke-width:1.11686" /><g
       id="g23"
       transform="matrix(0.86105643,0,0,0.86316258,3.3346797,1.5146821)"
       style="stroke-width:1.15994"><g
         id="g22"
         transform="translate(-0.25173808)"
         style="stroke-width:1.15994"><g
           id="g20"
           transform="matrix(1.2065325,0.06680052,-0.06622617,1.2251861,-14.140532,4.2300892)"
           style="stroke-width:0.952617;stroke-linejoin:round"><ellipse
             style="fill:none;stroke:#fff;stroke-width:0.952617;stroke-linecap:round;stroke-linejoin:round;stroke-dasharray:none"
             id="path11"
             cx="37.620106"
             cy="22.478872"
             rx="1.3444659"
             ry="1.3434585" /><ellipse
             style="fill:none;stroke:#fff;stroke-width:0.952617;stroke-linecap:round;stroke-linejoin:round;stroke-dasharray:none"
             id="circle11"
             cx="41.628197"
             cy="21.014156"
             rx="1.3444659"
             ry="1.3434585" /></g><path
           id="path27"
           style="fill:none;stroke:#fff;stroke-width:1.15994px;stroke-linecap:round;stroke-linejoin:round;stroke-opacity:1"
           d="m 14.43919,29.985042 0.0023,2.252338 -2.252339,0.0023 v 1.295535 1.295534 l 2.252339,-0.0023 0.0023,2.252339 h 1.295535 1.295534 l -0.0023,-2.252339 2.252338,-0.0023 V 33.530614 32.23508 l -2.252338,0.0023 -0.0023,-2.252338 h -1.295536 z" /></g><path
         style="fill:none;stroke:#fff;stroke-width:1.15994px;stroke-linecap:round;stroke-linejoin:round;stroke-opacity:1"
         d="m 12.433774,49.511347 c -2.08948,-0.50167 -2.410141,-0.782907 -2.410141,-3.928109 V 3.5008493 c 0,-1.5930024 0.7347,-2.3590777 1.866487,-2.3584214 8.073226,-0.00125 16.146456,0.0039 24.219681,0 1.131787,-6.563e-4 1.866487,0.765419 1.866487,2.3584214 V 45.583238 c 0,3.145202 -0.320661,3.426439 -2.410141,3.928109 -1.493737,0.358636 -6.094173,1.44627 -11.566187,1.44627 -5.472013,0 -10.072449,-1.087634 -11.566186,-1.44627 z"
         id="path1"
         sodipodi:nodetypes="sssssssscs" /><path
         style="fill:none;stroke:#fff;stroke-width:1.15994px;stroke-linecap:round;stroke-linejoin:round;stroke-opacity:1"
         d="M 17.002839,6.5691715 V 19.495386 H 30.99716 V 6.5691715 Z"
         id="path2"
         sodipodi:nodetypes="ccccc" /><path
         style="fill:none;stroke:#fff;stroke-width:1.15994px;stroke-linecap:round;stroke-linejoin:round;stroke-opacity:1"
         d="m 13.539183,4.0941153 c -0.911268,0.036297 -0.759317,1.1764025 -0.759317,2.2806877 v 15.61708 c 0,1.736891 3.851795,2.768818 11.220094,2.768818 7.3683,0 11.220094,-1.031927 11.220094,-2.768818 V 6.374803 c 0,-1.1042852 0.152675,-2.2806877 -0.759316,-2.2806877 0,0 -4.020613,-0.1434898 -10.460777,-0.1434898 -6.440165,0 -10.460778,0.1434898 -10.460778,0.1434898 z"
         id="path3"
         sodipodi:nodetypes="ssscssszs" /><g
         id="g21"
         transform="translate(-0.3446615)"
         style="stroke-width:1.15994"><path
           style="fill:none;stroke:#fff;stroke-width:1.15994px;stroke-linecap:round;stroke-linejoin:round;stroke-opacity:1"
           d="m 21.116231,42.107708 h 1.92716"
           id="path5" /><path
           style="fill:none;stroke:#fff;stroke-width:1.15994px;stroke-linecap:round;stroke-linejoin:round;stroke-opacity:1"
           d="m 27.573092,42.107708 h -1.92716"
           id="path21" /></g></g></g></svg>
