<?xml version="1.0" encoding="UTF-8" standalone="no"?>
<!-- Created with Inkscape (http://www.inkscape.org/) -->

<svg
   width="48"
   height="48"
   viewBox="0 0 48 48.000002"
   version="1.1"
   id="svg5"
   inkscape:version="1.3.2 (091e20ef0f, 2023-11-25)"
   xml:space="preserve"
   sodipodi:docname="gg.svg"
   xmlns:inkscape="http://www.inkscape.org/namespaces/inkscape"
   xmlns:sodipodi="http://sodipodi.sourceforge.net/DTD/sodipodi-0.dtd"
   xmlns="http://www.w3.org/2000/svg"
   xmlns:svg="http://www.w3.org/2000/svg"><sodipodi:namedview
     id="namedview7"
     pagecolor="#505050"
     bordercolor="#eeeeee"
     borderopacity="1"
     inkscape:pageshadow="0"
     inkscape:pageopacity="0"
     inkscape:pagecheckerboard="0"
     inkscape:document-units="px"
     showgrid="false"
     units="px"
     inkscape:zoom="10.712906"
     inkscape:cx="21.329413"
     inkscape:cy="25.389936"
     inkscape:window-width="1896"
     inkscape:window-height="1035"
     inkscape:window-x="10"
     inkscape:window-y="31"
     inkscape:window-maximized="1"
     inkscape:current-layer="layer1"
     inkscape:showpageshadow="0"
     inkscape:deskcolor="#d1d1d1"
     showguides="true"><sodipodi:guide
       position="24,28.000001"
       orientation="-1,0"
       id="guide1"
       inkscape:locked="false"
       inkscape:label=""
       inkscape:color="rgb(0,134,229)" /></sodipodi:namedview><defs
     id="defs2"><inkscape:path-effect
       effect="fillet_chamfer"
       id="path-effect27"
       is_visible="true"
       lpeversion="1"
       nodesatellites_param="F,0,0,1,0,0,0,1 @ F,0,0,1,0,2.9876133,0,1 @ F,0,0,1,0,0,0,1 @ F,0,0,1,0,0.85564082,0,1 @ F,0,0,1,0,0,0,1"
       radius="0"
       unit="px"
       method="auto"
       mode="F"
       chamfer_steps="1"
       flexible="false"
       use_knot_distance="true"
       apply_no_radius="true"
       apply_with_radius="true"
       only_selected="false"
       hide_knots="false" /><inkscape:path-effect
       effect="fillet_chamfer"
       id="path-effect25"
       is_visible="true"
       lpeversion="1"
       nodesatellites_param="F,0,0,1,0,0,0,1 @ F,0,0,1,0,2.9876133,0,1 @ F,0,0,1,0,0,0,1 @ F,0,0,1,0,0.85564082,0,1 @ F,0,0,1,0,0,0,1"
       radius="0"
       unit="px"
       method="auto"
       mode="F"
       chamfer_steps="1"
       flexible="false"
       use_knot_distance="true"
       apply_no_radius="true"
       apply_with_radius="true"
       only_selected="false"
       hide_knots="false" /><inkscape:path-effect
       effect="fillet_chamfer"
       id="path-effect1"
       is_visible="true"
       lpeversion="1"
       nodesatellites_param="F,0,0,1,0,0,0,1 @ F,0,0,1,0,0.85564082,0,1 @ F,0,0,1,0,0,0,1 @ F,0,0,1,0,2.9876133,0,1 @ F,0,0,1,0,0,0,1"
       radius="0"
       unit="px"
       method="auto"
       mode="F"
       chamfer_steps="1"
       flexible="false"
       use_knot_distance="true"
       apply_no_radius="true"
       apply_with_radius="true"
       only_selected="false"
       hide_knots="false" /><style
       id="style1">.a{fill:none;stroke:#fff;stroke-linecap:round;stroke-linejoin:round;}.b{fill:#fff;}</style></defs><g
     inkscape:label="Layer 1"
     inkscape:groupmode="layer"
     id="layer1"><g
       id="g29"
       transform="translate(0,-1.9999988)"><path
         id="path9"
         style="fill:none;stroke:#fff;stroke-width:1;stroke-linecap:round;stroke-linejoin:round;stroke-dasharray:none"
         d="m 7.355291,22.908681 c -0.41579,9.42e-4 -0.8269419,0.08732 -1.2078958,0.253752 v 1.563876 H 4.5805816 c -0.1681076,0.38165 -0.2555206,0.793867 -0.2567641,1.210832 0.00144,0.416499 0.088843,0.828228 0.2567641,1.209452 h 1.5668136 v 1.563876 c 0.3808531,0.166911 0.7920091,0.253754 1.2078958,0.25513 0.4166234,-1.28e-4 0.8287493,-0.08604 1.2106567,-0.252372 v -1.566634 h 1.5681933 c 0.166499,-0.381527 0.252496,-0.793243 0.252623,-1.209452 -8.08e-4,-0.416868 -0.08775,-0.829081 -0.255383,-1.210832 H 8.5659477 V 23.163811 C 8.1842423,22.996531 7.7721083,22.909679 7.355291,22.908681 Z"
         sodipodi:nodetypes="ccccccccccccccccc" /><path
         style="fill:none;stroke:#fff;stroke-width:1;stroke-linecap:round;stroke-linejoin:round;stroke-dasharray:none;stroke-opacity:1"
         d="m 6.1473998,24.7266 2.4181123,2.420274"
         id="path12"
         sodipodi:nodetypes="cc" /><path
         style="fill:#fff;stroke:#fff;stroke-width:1;stroke-linecap:round;stroke-linejoin:round;stroke-dasharray:none;stroke-opacity:1"
         d="M 8.5655119,24.726601 6.1473994,27.146874"
         id="path13"
         sodipodi:nodetypes="cc" /><path
         style="fill:none;stroke:#fff;stroke-width:1;stroke-linecap:round;stroke-linejoin:round;stroke-dasharray:none;stroke-opacity:1"
         d="m 8.8030495,14.10867 c 0.3554386,-0.248569 1.1577943,-0.411481 1.7630155,-0.445072 0.639547,-0.0355 1.454491,0.03893 1.903755,0.261246"
         id="path8"
         sodipodi:nodetypes="cac" /><ellipse
         style="fill:none;stroke:#fff;stroke-width:1;stroke-linecap:round;stroke-linejoin:round;stroke-dasharray:none"
         id="path10"
         cx="39.057941"
         cy="28.033745"
         rx="1.4951267"
         ry="1.4978085" /><ellipse
         style="fill:none;stroke:#fff;stroke-width:1;stroke-linecap:round;stroke-linejoin:round;stroke-dasharray:none"
         id="circle10"
         cx="41.799023"
         cy="24.516493"
         rx="1.4951267"
         ry="1.4978085" /><path
         style="fill:none;stroke:#fff;stroke-width:1.00002;stroke-linecap:round;stroke-linejoin:round;stroke-dasharray:none"
         id="circle12"
         sodipodi:type="arc"
         sodipodi:cx="41.695518"
         sodipodi:cy="10.493384"
         sodipodi:rx="1.506718"
         sodipodi:ry="1.4842806"
         sodipodi:start="4.712389"
         sodipodi:end="1.5707963"
         sodipodi:arc-type="slice"
         d="m 41.695518,9.0091038 a 1.506718,1.4842806 0 0 1 1.506719,1.4842802 1.506718,1.4842806 0 0 1 -1.506719,1.484281 v -1.484281 z"
         transform="matrix(0.96405685,0.26569606,-0.2744922,0.96158933,0,0)" /><path
         style="fill:none;stroke:#fff;stroke-width:1;stroke-linecap:round;stroke-linejoin:round;stroke-dasharray:none;stroke-opacity:1"
         d="m 39.440935,13.950387 1.731823,0.158283"
         id="path15"
         sodipodi:nodetypes="cc" /><path
         id="path19"
         style="fill:none;stroke:#fff;stroke-width:1;stroke-linecap:round;stroke-linejoin:round;stroke-dasharray:none;stroke-opacity:1"
         d="m 13.544983,17.217198 c -1.114775,0.198537 -3.7176112,0.480598 -3.086873,3.112684 0.630738,2.632085 3.483199,10.37847 4.722603,11.372584 1.239402,0.994116 1.167904,1.015305 8.818796,1.015305 7.650894,0 7.579394,-0.02119 8.818796,-1.015305 1.239405,-0.994114 4.091865,-8.740499 4.722603,-11.372584 0.630739,-2.632086 -1.972096,-2.914147 -3.086873,-3.112684 -3.795727,-0.675997 -17.119886,-0.674829 -20.909052,0 z"
         sodipodi:nodetypes="ssssssss" /><path
         id="path20"
         style="fill:none;stroke:#fff;stroke-width:1;stroke-linecap:round;stroke-linejoin:round;stroke-dasharray:none;stroke-opacity:1"
         d="m 17.368229,18.729354 v 10.24927 h 6.63128 6.631279 v -10.24927 h -6.631279 z"
         sodipodi:nodetypes="ccccccc" /><path
         style="fill:none;stroke:#fff;stroke-width:1;stroke-linecap:butt;stroke-linejoin:miter;stroke-dasharray:none;stroke-opacity:1"
         d="m 41.165246,37.540007 c 4.813217,-0.969971 4.364241,-5.196864 4.283952,-11.38038 C 45.368908,19.97611 44.880196,16.526431 42.368674,15.853409 41.17437,15.533368 37.079704,15.114178 24,15.114178 c -13.079704,0 -17.1743707,0.41919 -18.3686732,0.739231 -2.5115227,0.673022 -3.0002347,4.122701 -3.0805247,10.306218 -0.080289,6.183516 -0.5292658,10.410409 4.283952,11.38038 0,0 7.3789869,0.807788 17.1652459,0.807788 9.786259,0 17.165246,-0.807788 17.165246,-0.807788 z"
         id="path28"
         sodipodi:nodetypes="csscssccc" /></g></g></svg>
