<?xml version="1.0" encoding="UTF-8" standalone="no"?>
<!-- Created with Inkscape (http://www.inkscape.org/) -->

<svg
   width="48"
   height="48"
   viewBox="0 0 48 48.000002"
   version="1.1"
   id="svg5"
   inkscape:version="1.3.2 (091e20ef0f, 2023-11-25)"
   xml:space="preserve"
   sodipodi:docname="md.svg"
   xmlns:inkscape="http://www.inkscape.org/namespaces/inkscape"
   xmlns:sodipodi="http://sodipodi.sourceforge.net/DTD/sodipodi-0.dtd"
   xmlns="http://www.w3.org/2000/svg"
   xmlns:svg="http://www.w3.org/2000/svg"><sodipodi:namedview
     id="namedview7"
     pagecolor="#505050"
     bordercolor="#eeeeee"
     borderopacity="1"
     inkscape:pageshadow="0"
     inkscape:pageopacity="0"
     inkscape:pagecheckerboard="0"
     inkscape:document-units="px"
     showgrid="false"
     units="px"
     inkscape:zoom="10.006069"
     inkscape:cx="4.3473616"
     inkscape:cy="17.389446"
     inkscape:window-width="1896"
     inkscape:window-height="1035"
     inkscape:window-x="10"
     inkscape:window-y="31"
     inkscape:window-maximized="1"
     inkscape:current-layer="layer1"
     inkscape:showpageshadow="0"
     inkscape:deskcolor="#d1d1d1"
     showguides="true"><sodipodi:guide
       position="0,28.000001"
       orientation="0,1"
       id="guide1"
       inkscape:locked="false"
       inkscape:label=""
       inkscape:color="rgb(0,134,229)" /><sodipodi:guide
       position="24,28.000001"
       orientation="-1,0"
       id="guide2"
       inkscape:locked="false"
       inkscape:label=""
       inkscape:color="rgb(0,134,229)" /></sodipodi:namedview><defs
     id="defs2" /><g
     inkscape:label="Layer 1"
     inkscape:groupmode="layer"
     id="layer1"><g
       id="g1"
       transform="matrix(1.162163,0,0,1.1653075,-3.8919122,-3.9675562)"
       style="stroke-width:0.859303"><path
         style="fill:none;stroke:#fff;stroke-width:0.859303;stroke-linecap:butt;stroke-linejoin:miter;stroke-dasharray:none;stroke-opacity:1"
         d="m 24.005263,28.74686 c -4.179129,0 -6.952909,0.837346 -7.91623,3.337529 -0.963322,2.500183 -3.647747,3.59822 -6.2972529,1.245289 -2.6495064,-2.352929 -4.3408322,-6.601571 -4.2906038,-9.147252 0.050229,-2.545681 0.8749741,-5.358042 4.1263568,-7.269683 3.2513839,-1.911639 8.7671839,-3.54037 14.3723229,-3.54037"
         id="path1" /><ellipse
         style="fill:none;stroke:#fff;stroke-width:0.859303;stroke-linecap:round;stroke-linejoin:round;stroke-dasharray:none"
         id="path2"
         cx="13.934717"
         cy="23.594862"
         rx="5.24717"
         ry="5.2616134" /><path
         id="circle2"
         style="fill:none;stroke:#fff;stroke-width:0.859303;stroke-linecap:round;stroke-linejoin:round;stroke-dasharray:none"
         d="m 13.934717,20.602075 a 2.9848084,2.9929528 0 0 0 -0.706889,0.09226 v 1.644908 c 0,0.305787 -0.244848,0.551302 -0.549803,0.551302 h -1.635942 a 2.9848084,2.9929528 0 0 0 -0.09201,0.704317 2.9848084,2.9929528 0 0 0 0.09201,0.711068 h 1.638188 c 0.304953,0 0.549801,0.245516 0.549801,0.551303 v 1.638156 a 2.9848084,2.9929528 0 0 0 0.704645,0.09226 2.9848084,2.9929528 0 0 0 0.704645,-0.09226 v -1.640406 c 0,-0.305787 0.247093,-0.553553 0.552045,-0.553553 h 1.635943 a 2.9848084,2.9929528 0 0 0 0.09201,-0.706568 2.9848084,2.9929528 0 0 0 -0.08528,-0.706568 h -1.64716 c -0.304955,0 -0.549802,-0.245518 -0.549804,-0.551301 v -1.649408 a 2.9848084,2.9929528 0 0 0 -0.702399,-0.08551 z" /><path
         style="fill:none;stroke:#fff;stroke-width:0.859303;stroke-linecap:butt;stroke-linejoin:miter;stroke-dasharray:none;stroke-opacity:1"
         d="m 23.994736,28.74686 c 4.179129,0 6.952908,0.837346 7.91623,3.337529 0.963322,2.500183 3.647747,3.59822 6.297253,1.245289 2.649507,-2.352929 4.340833,-6.601571 4.290605,-9.147252 -0.05024,-2.545681 -0.874975,-5.358042 -4.126359,-7.269683 -3.251383,-1.911639 -8.767183,-3.54037 -14.372322,-3.54037"
         id="path10" /><ellipse
         style="fill:none;stroke:#fff;stroke-width:0.85932;stroke-linecap:round;stroke-linejoin:round;stroke-dasharray:none"
         id="path11"
         cx="15.931791"
         cy="35.993584"
         transform="matrix(0.89631559,-0.4434167,0.44737984,0.89434405,0,0)"
         rx="1.0516562"
         ry="1.0462453" /><ellipse
         style="fill:none;stroke:#fff;stroke-width:0.85932;stroke-linecap:round;stroke-linejoin:round;stroke-dasharray:none"
         id="circle13"
         cx="19.44862"
         cy="35.659092"
         transform="matrix(0.89631559,-0.4434167,0.44737984,0.89434405,0,0)"
         rx="1.0516562"
         ry="1.0462453" /><ellipse
         style="fill:none;stroke:#fff;stroke-width:0.85932;stroke-linecap:round;stroke-linejoin:round;stroke-dasharray:none"
         id="circle14"
         cx="22.965452"
         cy="35.993584"
         transform="matrix(0.89631559,-0.4434167,0.44737984,0.89434405,0,0)"
         rx="1.0516562"
         ry="1.0462453" /><path
         id="circle15"
         style="fill:none;stroke:#fff;stroke-width:0.859311;stroke-linecap:round;stroke-linejoin:round"
         d="m 32.139729,20.772499 c -1.15656,0.573568 -3.289421,2.042351 -3.289421,2.042351 -1.295539,0.804379 -1.924028,2.329667 -1.245792,3.68968 0.678906,1.35968 2.336665,1.912627 3.703365,1.23526 1.166669,-0.578227 2.133792,-1.467057 3.290295,-2.040597 1.156503,-0.573541 3.617389,-1.385107 3.617389,-1.385107 1.425493,-0.545826 1.92613,-2.329857 1.247553,-3.690554 -0.679248,-1.360365 -2.279356,-1.779496 -3.705126,-1.234388 0,0 -2.461704,0.809786 -3.618263,1.383355 z"
         sodipodi:nodetypes="sscssscss" /><path
         style="fill:none;stroke:#fff;stroke-width:0.8593px;stroke-linecap:round;stroke-linejoin:miter;stroke-opacity:1"
         d="m 30.092779,19.087595 2.441754,-0.986401"
         id="path20" /></g></g></svg>
