<?xml version="1.0" encoding="UTF-8" standalone="no"?>
<!-- Created with Inkscape (http://www.inkscape.org/) -->

<svg
   width="48"
   height="48"
   viewBox="0 0 48 48.000002"
   version="1.1"
   id="svg5"
   inkscape:version="1.3.2 (091e20ef0f, 2023-11-25)"
   xml:space="preserve"
   sodipodi:docname="megaduck.svg"
   xmlns:inkscape="http://www.inkscape.org/namespaces/inkscape"
   xmlns:sodipodi="http://sodipodi.sourceforge.net/DTD/sodipodi-0.dtd"
   xmlns="http://www.w3.org/2000/svg"
   xmlns:svg="http://www.w3.org/2000/svg"><sodipodi:namedview
     id="namedview7"
     pagecolor="#505050"
     bordercolor="#eeeeee"
     borderopacity="1"
     inkscape:pageshadow="0"
     inkscape:pageopacity="0"
     inkscape:pagecheckerboard="0"
     inkscape:document-units="px"
     showgrid="false"
     units="px"
     inkscape:zoom="10.042951"
     inkscape:cx="13.641409"
     inkscape:cy="25.390945"
     inkscape:window-width="1896"
     inkscape:window-height="1035"
     inkscape:window-x="10"
     inkscape:window-y="31"
     inkscape:window-maximized="1"
     inkscape:current-layer="layer1"
     inkscape:showpageshadow="0"
     inkscape:deskcolor="#d1d1d1"
     showguides="true"><sodipodi:guide
       position="24,28.470903"
       orientation="-1,0"
       id="guide1"
       inkscape:locked="false"
       inkscape:label=""
       inkscape:color="rgb(0,134,229)" /></sodipodi:namedview><defs
     id="defs2" /><g
     inkscape:label="Layer 1"
     inkscape:groupmode="layer"
     id="layer1"><g
       id="g15"
       transform="translate(2.0075768,2.9999889)"><path
         id="path1"
         style="fill:none;stroke:#fff;stroke-width:1px;stroke-linecap:round;stroke-linejoin:round;stroke-opacity:1"
         d="m 11.53553,3.4107614 c -1.147734,0.9912394 -0.914476,4.8927205 -1.014364,7.3707906 -0.07952,1.972757 0.426332,3.94068 0.332439,5.912807 -0.09479,1.991028 -0.772656,3.923685 -0.9014199,5.912808 -0.2578867,3.983777 -0.2782037,6.801058 0.2642459,11.972479 0.540828,5.155974 7.846369,4.918049 11.775992,4.918049 3.929623,0 11.235163,0.237925 11.775992,-4.918049 0.54245,-5.171421 0.522133,-7.988702 0.264246,-11.972479 -0.128764,-1.989123 -0.806626,-3.92178 -0.90142,-5.912808 -0.09389,-1.972127 0.411957,-3.94005 0.332439,-5.912807 C 33.363792,8.3034819 33.597051,4.4020008 32.449316,3.4107614 31.303923,2.4215432 29.625169,2.5015865 22.011602,2.5019172 14.398018,2.5015866 12.680924,2.4215423 11.53553,3.4107614 Z"
         sodipodi:nodetypes="ssssscssssscs" /><path
         style="fill:none;stroke:#fff;stroke-width:1px;stroke-linecap:round;stroke-linejoin:round;stroke-opacity:1"
         d="m 16.267807,22.972161 v 1.175801"
         id="path4" /><path
         style="fill:none;stroke:#fff;stroke-width:1px;stroke-linecap:round;stroke-linejoin:round;stroke-opacity:1"
         d="m 16.267807,27.801248 v 1.175801"
         id="path5" /><path
         style="fill:none;stroke:#fff;stroke-width:1px;stroke-linecap:round;stroke-linejoin:round;stroke-opacity:1"
         d="m 13.26173,25.974606 h 1.177224"
         id="path6" /><path
         style="fill:none;stroke:#fff;stroke-width:1px;stroke-linecap:round;stroke-linejoin:round;stroke-opacity:1"
         d="m 18.096659,25.974606 h 1.177224"
         id="path7" /><ellipse
         style="fill:none;stroke:#fff;stroke-width:1;stroke-linecap:round;stroke-linejoin:round"
         id="path8"
         cx="25.037207"
         cy="24.451838"
         rx="1.4636494"
         ry="1.4618808" /><ellipse
         style="fill:none;stroke:#fff;stroke-width:1;stroke-linecap:round;stroke-linejoin:round"
         id="circle8"
         cx="29.736544"
         cy="23.72135"
         rx="1.4636494"
         ry="1.4618808" /><path
         style="fill:none;stroke:#fff;stroke-width:0.999994px;stroke-linecap:round;stroke-linejoin:round;stroke-opacity:1"
         d="m 28.516727,29.185911 2.549835,-0.406369"
         id="path10" /><path
         style="fill:none;stroke:#fff;stroke-width:1px;stroke-linecap:round;stroke-linejoin:round;stroke-opacity:1"
         d="m 23.667623,29.628744 2.595611,-0.12773"
         id="path9" /><path
         style="fill:none;stroke:#fff;stroke-width:1px;stroke-linecap:round;stroke-linejoin:round;stroke-opacity:1"
         d="m 25.22009,20.115105 c 4.613486,-0.246822 5.742405,-1.509232 5.81758,-6.961193 C 31.11285,7.7019506 31.322102,5.580781 28.960219,5.43004 26.598336,5.2792973 24.315302,5.3170931 21.992385,5.3170931 c -2.322917,0 -4.605951,-0.037791 -6.967835,0.1129469 -2.361882,0.150741 -2.152626,2.2719106 -2.077451,7.723872 0.07517,5.451961 1.204094,6.714371 5.817581,6.961193 1.218906,0.06521 2.151222,0.105914 3.227705,0.105914 1.076482,0 2.0088,-0.0407 3.227705,-0.105914 z"
         id="path14"
         sodipodi:nodetypes="sssasssas" /><path
         style="fill:none;stroke:#fff;stroke-width:0.999994px;stroke-linecap:round;stroke-linejoin:round;stroke-opacity:1"
         d="M 27.254015,17.137796 V 7.7006099 h -5.26163 -5.26163 v 9.4371861 h 5.26163 z"
         id="path15"
         sodipodi:nodetypes="ccccccc" /></g></g></svg>
