<?xml version="1.0" encoding="UTF-8" standalone="no"?>
<!-- Created with Inkscape (http://www.inkscape.org/) -->

<svg
   width="48"
   height="48"
   viewBox="0 0 48 48.000002"
   version="1.1"
   id="svg5"
   inkscape:version="1.3.2 (091e20ef0f, 2023-11-25)"
   xml:space="preserve"
   sodipodi:docname="neogeo.svg"
   xmlns:inkscape="http://www.inkscape.org/namespaces/inkscape"
   xmlns:sodipodi="http://sodipodi.sourceforge.net/DTD/sodipodi-0.dtd"
   xmlns="http://www.w3.org/2000/svg"
   xmlns:svg="http://www.w3.org/2000/svg"><sodipodi:namedview
     id="namedview7"
     pagecolor="#505050"
     bordercolor="#eeeeee"
     borderopacity="1"
     inkscape:pageshadow="0"
     inkscape:pageopacity="0"
     inkscape:pagecheckerboard="0"
     inkscape:document-units="px"
     showgrid="false"
     units="px"
     inkscape:zoom="8.5207599"
     inkscape:cx="13.496449"
     inkscape:cy="13.84853"
     inkscape:window-width="1896"
     inkscape:window-height="1035"
     inkscape:window-x="10"
     inkscape:window-y="31"
     inkscape:window-maximized="1"
     inkscape:current-layer="layer1"
     inkscape:showpageshadow="0"
     inkscape:deskcolor="#d1d1d1"
     showguides="true"><sodipodi:guide
       position="24,40.861226"
       orientation="-1,0"
       id="guide1"
       inkscape:locked="false"
       inkscape:label=""
       inkscape:color="rgb(0,134,229)" /></sodipodi:namedview><defs
     id="defs2" /><g
     inkscape:label="Layer 1"
     inkscape:groupmode="layer"
     id="layer1"><g
       id="g15"
       transform="translate(0,0.87346195)"><path
         style="fill:none;stroke:#ffffff;stroke-width:1px;stroke-linecap:round;stroke-linejoin:round;stroke-opacity:1"
         d="M 2.09124,37.714551 V 8.5385251 H 45.90876 V 37.714551 Z"
         id="path1"
         sodipodi:nodetypes="ccccc" /><path
         style="fill:none;stroke:#ffffff;stroke-width:1px;stroke-linecap:round;stroke-linejoin:round;stroke-opacity:1"
         d="m 5.1484645,8.5385251 c 7.8184095,0 14.9515335,1.8992009 18.8515355,1.8992009 3.900002,0 11.033126,-1.8992009 18.851535,-1.8992009"
         id="path2"
         sodipodi:nodetypes="ccc" /></g><g
       id="g19"
       transform="translate(-0.8837727,0.99766005)"><circle
         style="fill:none;stroke:#ffffff;stroke-width:1;stroke-linecap:round;stroke-linejoin:round"
         id="circle4"
         cx="14.209151"
         cy="20.269819"
         r="2.2781303" /><g
         id="g18"><circle
           style="fill:none;stroke:#ffffff;stroke-linecap:round;stroke-linejoin:round"
           id="path4"
           cx="14.209151"
           cy="20.269819"
           r="5.7592893" /><g
           id="g14"
           transform="rotate(-45,33.660503,17.342502)"><path
             style="fill:none;stroke:#ffffff;stroke-width:0.999999;stroke-linecap:round;stroke-linejoin:round"
             d="m 32.274183,-5.1513767 a 1.1624407,1.1624407 0 0 1 -1.162441,1.1624406 1.1624407,1.1624407 0 0 1 -1.162441,-1.1624406 1.1624407,1.1624407 0 0 1 1.162441,-1.1624407 1.1624407,1.1624407 0 0 1 1.162441,1.1624407 z"
             transform="rotate(46.653435)"
             id="path10" /><path
             style="fill:none;stroke:#ffffff;stroke-width:0.999999;stroke-linecap:round;stroke-linejoin:round"
             d="m 41.344428,-14.760829 a 1.1624407,1.1624407 0 0 1 -1.16244,1.162441 1.1624407,1.1624407 0 0 1 -1.162441,-1.162441 1.1624407,1.1624407 0 0 1 1.162441,-1.162441 1.1624407,1.1624407 0 0 1 1.16244,1.162441 z"
             id="path9"
             transform="rotate(46.653435)" /><path
             style="fill:none;stroke:#ffffff;stroke-width:0.999999;stroke-linecap:round;stroke-linejoin:round"
             d="m 34.642337,-8.9730177 a 1.1624407,1.1624407 0 0 1 -1.16244,1.1624407 1.1624407,1.1624407 0 0 1 -1.162441,-1.1624407 1.1624407,1.1624407 0 0 1 1.162441,-1.1624403 1.1624407,1.1624407 0 0 1 1.16244,1.1624403 z"
             transform="rotate(46.653435)"
             id="path8" /><path
             style="fill:none;stroke:#ffffff;stroke-width:0.999999;stroke-linecap:round;stroke-linejoin:round"
             d="m 37.665752,-12.176168 a 1.1624407,1.1624407 0 0 1 -1.162441,1.16244 1.1624407,1.1624407 0 0 1 -1.162441,-1.16244 1.1624407,1.1624407 0 0 1 1.162441,-1.162441 1.1624407,1.1624407 0 0 1 1.162441,1.162441 z"
             transform="rotate(46.653435)"
             id="circle8" /><path
             id="path11"
             style="fill:none;stroke:#ffffff;stroke-width:1;stroke-linecap:round;stroke-linejoin:round"
             d="m 22.953125,16.8125 c -1.265921,1.177861 -1.315839,3.168364 -0.128906,4.425781 2.393667,2.535811 4.567758,0.180271 8.910806,0.159058 3.971662,-0.0194 6.220273,2.337525 8.729815,-0.0321 1.257205,-1.187112 1.198921,-3.069062 0.126953,-4.425781 -2.351785,-2.9765 -14.460254,-3.084274 -17.638668,-0.126957 z"
             sodipodi:nodetypes="ssssss" /></g></g></g><g
       id="g16"
       transform="matrix(-1,0,0,1,48,0.87346195)" /><g
       id="g17"
       transform="translate(-0.3175555,0.87346195)"><path
         style="fill:none;stroke:#ffffff;stroke-width:1px;stroke-linecap:round;stroke-linejoin:miter;stroke-opacity:1"
         d="m 20.421327,12.145815 1.82142,0.239397"
         id="path3"
         sodipodi:nodetypes="cc" /><path
         style="fill:none;stroke:#ffffff;stroke-width:1px;stroke-linecap:round;stroke-linejoin:miter;stroke-opacity:1"
         d="m 28.213784,12.145815 -1.82142,0.239397"
         id="path16"
         sodipodi:nodetypes="cc" /></g></g></svg>
