<?xml version="1.0" encoding="UTF-8" standalone="no"?>
<!-- Created with Inkscape (http://www.inkscape.org/) -->

<svg
   width="48"
   height="48"
   viewBox="0 0 48 48.000002"
   version="1.1"
   id="svg5"
   inkscape:version="1.3.2 (091e20ef0f, 2023-11-25)"
   xml:space="preserve"
   sodipodi:docname="pico.svg"
   xmlns:inkscape="http://www.inkscape.org/namespaces/inkscape"
   xmlns:sodipodi="http://sodipodi.sourceforge.net/DTD/sodipodi-0.dtd"
   xmlns="http://www.w3.org/2000/svg"
   xmlns:svg="http://www.w3.org/2000/svg"><sodipodi:namedview
     id="namedview7"
     pagecolor="#505050"
     bordercolor="#eeeeee"
     borderopacity="1"
     inkscape:pageshadow="0"
     inkscape:pageopacity="0"
     inkscape:pagecheckerboard="0"
     inkscape:document-units="px"
     showgrid="false"
     units="px"
     inkscape:zoom="9.1172281"
     inkscape:cx="31.862754"
     inkscape:cy="29.285217"
     inkscape:window-width="1896"
     inkscape:window-height="1035"
     inkscape:window-x="10"
     inkscape:window-y="31"
     inkscape:window-maximized="1"
     inkscape:current-layer="layer1"
     inkscape:showpageshadow="0"
     inkscape:deskcolor="#d1d1d1" /><defs
     id="defs2" /><g
     inkscape:label="Layer 1"
     inkscape:groupmode="layer"
     id="layer1"><g
       id="g3"
       transform="matrix(0.94871793,0,0,0.94871793,1.2307715,1.2307697)"
       style="stroke-width:1.05405"><path
         id="rect1"
         style="fill:none;stroke:#ffffff;stroke-linecap:round;stroke-linejoin:round"
         d="M 20.500209 4.4999996 C 20.222974 4.4999996 19.999945 4.7230287 19.999945 5.0002635 L 19.999945 19.999947 L 5.0002616 19.999947 C 4.7230268 19.999947 4.4999977 20.222976 4.4999977 20.500211 L 4.4999977 27.499789 C 4.4999977 27.777024 4.7230268 28.000053 5.0002616 28.000053 L 19.999945 28.000053 L 19.999945 42.999736 C 19.999945 43.276971 20.222974 43.5 20.500209 43.5 L 27.499787 43.5 C 27.777022 43.5 28.000051 43.276971 28.000051 42.999736 L 28.000051 28.000053 L 42.999735 28.000053 C 43.276969 28.000053 43.499998 27.777024 43.499998 27.499789 L 43.499998 20.500211 C 43.499998 20.222976 43.276969 19.999947 42.999735 19.999947 L 28.000051 19.999947 L 28.000051 5.0002635 C 28.000051 4.7230287 27.777022 4.4999996 27.499787 4.4999996 L 20.500209 4.4999996 z " /><rect
         style="fill:none;stroke:#ffffff;stroke-width:1.05405;stroke-linecap:round;stroke-linejoin:round"
         id="rect2"
         width="23"
         height="23"
         x="12.5"
         y="12.5"
         ry="0.48006356" /></g></g></svg>
