<?xml version="1.0" encoding="UTF-8" standalone="no"?>
<!-- Created with Inkscape (http://www.inkscape.org/) -->

<svg
   width="48"
   height="48"
   viewBox="0 0 48 48.000002"
   version="1.1"
   id="svg5"
   inkscape:version="1.3.2 (091e20ef0f, 2023-11-25)"
   xml:space="preserve"
   sodipodi:docname="poke.svg"
   xmlns:inkscape="http://www.inkscape.org/namespaces/inkscape"
   xmlns:sodipodi="http://sodipodi.sourceforge.net/DTD/sodipodi-0.dtd"
   xmlns="http://www.w3.org/2000/svg"
   xmlns:svg="http://www.w3.org/2000/svg"><sodipodi:namedview
     id="namedview7"
     pagecolor="#505050"
     bordercolor="#eeeeee"
     borderopacity="1"
     inkscape:pageshadow="0"
     inkscape:pageopacity="0"
     inkscape:pagecheckerboard="0"
     inkscape:document-units="px"
     showgrid="false"
     units="px"
     inkscape:zoom="10.287431"
     inkscape:cx="6.3669927"
     inkscape:cy="19.830023"
     inkscape:window-width="1896"
     inkscape:window-height="1035"
     inkscape:window-x="10"
     inkscape:window-y="31"
     inkscape:window-maximized="1"
     inkscape:current-layer="layer1"
     inkscape:showpageshadow="0"
     inkscape:deskcolor="#d1d1d1"
     showguides="true"><sodipodi:guide
       position="24,32.735338"
       orientation="-1,0"
       id="guide1"
       inkscape:locked="false"
       inkscape:label=""
       inkscape:color="rgb(0,134,229)" /></sodipodi:namedview><defs
     id="defs2" /><g
     inkscape:label="Layer 1"
     inkscape:groupmode="layer"
     id="layer1"><path
       id="path1"
       style="fill:none;stroke:#ffffff;stroke-width:1px;stroke-linecap:butt;stroke-linejoin:miter;stroke-opacity:1"
       d="m 22.136596,6.50075 c -1.791009,0.0075 -3.472685,0.082074 -5.995484,0.5511944 -3.363735,0.6254933 -4.457923,4.4440226 -4.808923,7.7668296 -0.351,3.322805 -0.900461,7.218984 -0.925435,8.318024 -0.02497,1.09904 0.09865,6.53914 0.04805,9.025808 -0.0506,2.486667 2.047762,5.044063 6.085313,5.660181 1.754291,0.2677 3.282803,0.468609 4.798478,0.62427 0.879542,0.09033 1.775025,0.110546 2.66141,0.121095 1.470681,0.0175 4.457664,0.534857 7.436909,2.021046 1.29799,0.647497 2.569178,1.252555 3.808282,0.691082 1.239104,-0.561475 2.439777,-3.261431 2.30001,-9.117674 -0.0506,-2.486668 0.07302,-7.926768 0.04805,-9.025808 -0.02497,-1.09904 -0.574435,-4.995219 -0.925435,-8.318024 C 36.316815,11.495967 35.222627,7.6774377 31.858893,7.0519444 28.495159,6.4264513 26.625788,6.5028379 24.000002,6.5028379 c -0.656446,0 -1.266402,-0.00459 -1.863406,-0.00208 z"
       sodipodi:nodetypes="sssssssssscssssss" /><ellipse
       style="fill:none;stroke:#ffffff;stroke-width:0.999989;stroke-linecap:round;stroke-linejoin:round"
       id="path2"
       ry="8.3234196"
       rx="10.826085"
       cy="19.037132"
       cx="23.559235" /><rect
       style="fill:none;stroke:#ffffff;stroke-width:1;stroke-linecap:round;stroke-linejoin:round"
       id="rect2"
       width="11.850605"
       height="8.8737268"
       x="17.633932"
       y="14.600269"
       ry="1.0592037"
       rx="0" /><ellipse
       style="fill:#ffffff;stroke:none;stroke-width:0.999999;stroke-linecap:round;stroke-linejoin:round"
       id="path4"
       cx="24"
       cy="30.942442"
       rx="0.75"
       ry="0.74922901" /><g
       id="g7"
       style="stroke-width:0.935208"
       transform="matrix(1.0695779,0,0,1.068983,-1.6698675,-1.6711239)"><path
         style="fill:none;stroke:#ffffff;stroke-width:0.935208px;stroke-linecap:round;stroke-linejoin:miter;stroke-opacity:1"
         d="m 17.425244,28.387801 v 5.335775"
         id="path5"
         sodipodi:nodetypes="cc" /><path
         style="fill:none;stroke:#ffffff;stroke-width:0.935208px;stroke-linecap:round;stroke-linejoin:miter;stroke-opacity:1"
         d="M 20.093132,31.055689 H 14.757357"
         id="path6"
         sodipodi:nodetypes="cc" /></g><g
       id="g6"
       transform="matrix(1.0695779,0,0,1.068983,-1.1779949,-1.6711239)"
       style="stroke-width:0.935208"><circle
         style="fill:none;stroke:#ffffff;stroke-width:0.935208;stroke-linecap:round;stroke-linejoin:round"
         id="circle3"
         cx="27.797691"
         cy="32.566917"
         r="1.75" /><circle
         style="fill:none;stroke:#ffffff;stroke-width:0.935208;stroke-linecap:round;stroke-linejoin:round"
         id="circle6"
         cx="32.33535"
         cy="29.406006"
         r="1.75" /></g><ellipse
       style="fill:#ffffff;stroke:none;stroke-width:0.999999;stroke-linecap:round;stroke-linejoin:round"
       id="ellipse8"
       cx="24"
       cy="34.513924"
       rx="0.75"
       ry="0.74922901" /><path
       id="path8"
       style="fill:none;stroke:#ffffff;stroke-width:1px;stroke-linecap:round;stroke-linejoin:miter;stroke-opacity:1"
       d="M 38.551933,17.390569 C 38.427684,16.359908 38.30122,15.285762 38.193461,14.265657 38.002515,12.458066 37.59164,10.503777 36.715112,8.996621"
       sodipodi:nodetypes="csc" /></g></svg>
