<?xml version="1.0" encoding="UTF-8" standalone="no"?>
<!-- Created with Inkscape (http://www.inkscape.org/) -->

<svg
   width="48"
   height="48"
   viewBox="0 0 48 48.000002"
   version="1.1"
   id="svg5"
   inkscape:version="1.3.2 (091e20ef0f, 2023-11-25)"
   xml:space="preserve"
   sodipodi:docname="ps.svg"
   xmlns:inkscape="http://www.inkscape.org/namespaces/inkscape"
   xmlns:sodipodi="http://sodipodi.sourceforge.net/DTD/sodipodi-0.dtd"
   xmlns="http://www.w3.org/2000/svg"
   xmlns:svg="http://www.w3.org/2000/svg"><sodipodi:namedview
     id="namedview7"
     pagecolor="#505050"
     bordercolor="#eeeeee"
     borderopacity="1"
     inkscape:pageshadow="0"
     inkscape:pageopacity="0"
     inkscape:pagecheckerboard="0"
     inkscape:document-units="px"
     showgrid="false"
     units="px"
     inkscape:zoom="8.9332744"
     inkscape:cx="20.429239"
     inkscape:cy="22.388207"
     inkscape:window-width="1896"
     inkscape:window-height="1035"
     inkscape:window-x="10"
     inkscape:window-y="31"
     inkscape:window-maximized="1"
     inkscape:current-layer="layer1"
     inkscape:showpageshadow="0"
     inkscape:deskcolor="#d1d1d1"
     showguides="true"><sodipodi:guide
       position="24,24"
       orientation="-1,0"
       id="guide1"
       inkscape:locked="false"
       inkscape:label=""
       inkscape:color="rgb(0,134,229)" /></sodipodi:namedview><defs
     id="defs2" /><g
     inkscape:label="Layer 1"
     inkscape:groupmode="layer"
     id="layer1"><g
       id="g12"
       transform="matrix(0,1.1718941,-1.1718941,0,37.303549,6.4901973)"
       style="stroke:#fff;stroke-width:0.853319" /><g
       id="g21"
       transform="translate(-0.19681495,0.33386988)" /><g
       id="g1"><path
         id="path1"
         style="fill:none;stroke:#fff;stroke-width:1px;stroke-linecap:butt;stroke-linejoin:miter;stroke-opacity:1"
         d="m 24,14.849832 h -6.131428 c -1.050515,0 -2.028907,-0.292039 -2.028907,-0.292039 0,0 -0.239767,-1.196506 -0.457729,-2.295802 -0.217961,-1.099296 -2.620954,-1.54972 -3.736339,-1.54972 -1.115386,0 -2.3130983,0.309676 -3.0508116,0.628841 -0.737713,0.319163 -0.7978321,1.637049 -1.0070021,2.555866 C 7.3786134,14.815792 6.7574856,15.664127 6.7574856,15.664127 5.6713525,16.67089 4.9054185,18.01805 4.6285173,19.53736 l -2.086389,12.890174 c -0.4046878,2.500241 2.1717626,4.859578 4.8519189,4.860195 1.8143503,4.18e-4 3.4210558,-1.043201 4.3111608,-2.626211 l 3.476605,-6.183957 c 0,0 0.955917,-1.696805 3.016748,-1.696805 H 24"
         sodipodi:nodetypes="cscsssscccsccsc" /><g
         id="g23"
         transform="translate(-0.17222881,-0.48875594)"><path
           style="fill:none;stroke:#fff;stroke-width:1px;stroke-linecap:butt;stroke-linejoin:miter;stroke-opacity:1"
           d="m 10.038226,19.364392 3.421252,3.427718"
           id="path12"
           sodipodi:nodetypes="cc" /><g
           id="g20"
           transform="matrix(1.0900318,0,0,1.0914121,-2.1607628,-2.0311208)"
           style="stroke-width:0.916824"><g
             id="g11"
             transform="matrix(1.1718941,0,0,1.1718941,-1.9235845,-3.369862)"
             style="stroke:#fff;stroke-width:0.782343"><path
               id="rect10"
               style="fill:none;stroke:#fff;stroke-width:0.782343;stroke-linecap:round;stroke-linejoin:round"
               d="m 11.626269,17.223668 c -0.241196,0 -0.434993,0.195463 -0.434993,0.43666 v 1.943301 H 9.2463081 c -0.2411968,0 -0.4366596,0.195463 -0.4366596,0.43666 v 1.806637 c 0,0.241197 0.1954628,0.43666 0.4366596,0.43666 h 1.9449679 v 1.943301 c 0,0.241197 0.193797,0.43666 0.434993,0.43666 h 1.806638 c 0.241196,0 0.436659,-0.195463 0.436659,-0.43666 v -1.943301 h 1.943302 c 0.241196,0 0.436659,-0.195463 0.436659,-0.43666 v -1.806637 c 0,-0.241197 -0.195463,-0.43666 -0.436659,-0.43666 h -1.943302 v -1.943301 c 0,-0.241197 -0.195463,-0.43666 -0.436659,-0.43666 z" /></g><path
             style="fill:#fff;stroke:#fff;stroke-width:0.916824px;stroke-linecap:butt;stroke-linejoin:miter;stroke-opacity:1"
             d="m 14.330078,19.603515 -3.138672,3.140626"
             id="path13"
             sodipodi:nodetypes="cc" /></g></g><path
         id="path16"
         style="fill:none;stroke:#fff;stroke-width:1px;stroke-linecap:butt;stroke-linejoin:miter;stroke-opacity:1"
         d="m 24,14.849832 h 6.131429 c 1.050515,0 2.028907,-0.292039 2.028907,-0.292039 0,0 0.239767,-1.196506 0.457728,-2.295802 0.217962,-1.099296 2.620955,-1.54972 3.736339,-1.54972 1.115386,0 2.313099,0.309676 3.050812,0.628841 0.737713,0.319163 0.797832,1.637049 1.007002,2.555866 0.20917,0.918814 0.830298,1.767149 0.830298,1.767149 1.086132,1.006763 1.852067,2.353923 2.128968,3.873233 l 2.086389,12.890174 c 0.404688,2.500241 -2.171762,4.859578 -4.851918,4.860195 -1.814351,4.18e-4 -3.421056,-1.043201 -4.311161,-2.626211 l -3.476605,-6.183957 c 0,0 -0.955917,-1.696805 -3.016748,-1.696805 H 24"
         sodipodi:nodetypes="cscsssscccsccsc" /><g
         id="g22"
         transform="matrix(1.0900318,0,0,1.0914121,-2.3752974,-2.3217841)"
         style="stroke-width:0.916824"><path
           style="fill:none;stroke:#fff;stroke-width:0.916824px;stroke-linecap:round;stroke-linejoin:round;stroke-opacity:1"
           d="m 20.514644,24.464501 v -1.62558 h 2.597905 v 1.62558 z"
           id="path6"
           sodipodi:nodetypes="ccccc" /><path
           style="fill:none;stroke:#fff;stroke-width:0.916824px;stroke-linecap:round;stroke-linejoin:round;stroke-opacity:1"
           d="m 25.37596,24.493358 v -1.622556 l 2.503138,0.811278 z"
           id="path17"
           sodipodi:nodetypes="cccc" /></g><g
         id="g19"
         transform="matrix(0.97339199,0,0,0.97460637,1.8672341,-0.34523579)"
         style="stroke-width:1.0267"><g
           id="g14"
           style="stroke:#fff;stroke-width:1.0267"><circle
             style="fill:none;stroke:#fff;stroke-width:1.0267;stroke-linecap:round;stroke-linejoin:round"
             id="path14"
             cx="35.450634"
             cy="17.915491"
             r="1.6492679" /><circle
             style="fill:none;stroke:#fff;stroke-width:1.0267;stroke-linecap:round;stroke-linejoin:round"
             id="circle14"
             cx="35.450634"
             cy="25.044891"
             r="1.6492679" /></g><g
           id="g18"
           style="stroke:#fff;stroke-width:1.0267"
           transform="rotate(90,35.450634,21.480191)"><circle
             style="fill:none;stroke:#fff;stroke-width:1.0267;stroke-linecap:round;stroke-linejoin:round"
             id="circle17"
             cx="35.450634"
             cy="17.915491"
             r="1.6492679" /><circle
             style="fill:none;stroke:#fff;stroke-width:1.0267;stroke-linecap:round;stroke-linejoin:round"
             id="circle18"
             cx="35.450634"
             cy="25.044891"
             r="1.6492679" /></g></g></g></g></svg>
