<?xml version="1.0" encoding="UTF-8" standalone="no"?>
<svg
   id="Layer_2"
   data-name="Layer 2"
   viewBox="0 0 48 48"
   version="1.1"
   sodipodi:docname="scummvm.svg"
   xml:space="preserve"
   inkscape:version="1.3.2 (091e20ef0f, 2023-11-25)"
   xmlns:inkscape="http://www.inkscape.org/namespaces/inkscape"
   xmlns:sodipodi="http://sodipodi.sourceforge.net/DTD/sodipodi-0.dtd"
   xmlns="http://www.w3.org/2000/svg"
   xmlns:svg="http://www.w3.org/2000/svg"><sodipodi:namedview
     id="namedview1"
     pagecolor="#505050"
     bordercolor="#eeeeee"
     borderopacity="1"
     inkscape:showpageshadow="0"
     inkscape:pageopacity="0"
     inkscape:pagecheckerboard="0"
     inkscape:deskcolor="#d1d1d1"
     inkscape:zoom="7.4593571"
     inkscape:cx="13.204891"
     inkscape:cy="13.80816"
     inkscape:window-width="1896"
     inkscape:window-height="1035"
     inkscape:window-x="10"
     inkscape:window-y="31"
     inkscape:window-maximized="1"
     inkscape:current-layer="Layer_2" /><defs
     id="defs1"><style
       id="style1">.cls-1{fill:none;stroke:#fff;stroke-linecap:round;stroke-linejoin:round;}</style><style
       id="style1-7">.f{fill:none;stroke:#fff;stroke-linecap:round;stroke-linejoin:round;}</style><style
       id="style1-6">.q,.r,.s{stroke-width:0px;}.t{stroke:#fff;stroke-linecap:round;stroke-linejoin:round;}.t,.u{fill:none;}.r,.v{fill:#fff;}.u{stroke:#fff;stroke-miterlimit:10;stroke-width:.25px;}.s{fill:#fff;}.v{font-family:OpenSans-Regular, 'Open Sans';font-size:6px;font-variation-settings:'wght' 400, 'wdth' 100;}</style></defs><path
     style="fill:none;stroke:#fff;stroke-width:1;stroke-linecap:round;stroke-linejoin:round"
     d="m 9.9514256,10.911265 c -0.8991079,-0.0047 -1.6291657,0.725363 -1.6244705,1.624471 l 0,15.633081 c -0.00469,0.899108 0.7253628,1.629165 1.6244705,1.62447 H 37.845185 c 0.899108,0.0047 1.629165,-0.725362 1.62447,-1.62447 V 12.535736 c 0.0047,-0.899108 -0.725362,-1.629166 -1.62447,-1.624471 z"
     id="path1"
     sodipodi:nodetypes="ccccccccc" /><path
     id="c"
     class="f"
     d="M 39.469555,33.5304 H 8.3269551 c -1.6174,0 -2.9287,-1.3106 -2.9287,-2.9274 V 10.4746 c 0,-1.6167 1.3112,-2.9274 2.9287,-2.9274 H 39.469655 c 1.6174,0 2.9287,1.3106 2.9287,2.9274 V 30.603 c 0,1.6167 -1.3112,2.9274 -2.9287,2.9274 v 0" /><path
     id="d"
     class="f"
     d="m 27.883355,33.5304 v 2.8603 c 0,2.8603 5.1394,4.0621 5.1394,4.0621 h -18.249 c 0,0 5.1018,-1.2018 5.1018,-4.0621 v -2.8603" /><g
     id="g8"
     transform="translate(1.2878455,0.45414825)"><polyline
       class="t"
       points="205.8338 48.6412 205.8338 40.65 209.8338 48.65 213.8338 40.6622 213.8338 48.65"
       id="polyline347"
       transform="translate(-179.61049,-24.297859)" /><polyline
       class="t"
       points="302.4838 40.65 299.8338 48.65 297.1838 40.65"
       id="polyline367"
       transform="translate(-278.47165,-24.297724)" /><path
       class="t"
       d="m 11.359399,23.475922 c 0.4906,0.6387 1.1057,0.8765 1.9615,0.8765 h 1.1844 c 1.1022,0 1.9957,-0.8935 1.9957,-1.9957 v -0.009 c 0,-1.1022 -0.8935,-1.9957 -1.9957,-1.9957 h -1.3065 c -1.1034,0 -1.9978,-0.8945 -1.9978,-1.9978 v 0 c 0,-1.1058 0.8964,-2.0022 2.0022,-2.0022 h 1.1779 c 0.8558,0 1.4709,0.2379 1.9615,0.8765"
       id="path388" /></g></svg>
