<?xml version="1.0" encoding="UTF-8" standalone="no"?>
<!-- Created with Inkscape (http://www.inkscape.org/) -->

<svg
   width="48"
   height="48"
   viewBox="0 0 48 48.000002"
   version="1.1"
   id="svg5"
   inkscape:version="1.3.2 (091e20ef0f, 2023-11-25)"
   xml:space="preserve"
   sodipodi:docname="segasgone.svg"
   xmlns:inkscape="http://www.inkscape.org/namespaces/inkscape"
   xmlns:sodipodi="http://sodipodi.sourceforge.net/DTD/sodipodi-0.dtd"
   xmlns="http://www.w3.org/2000/svg"
   xmlns:svg="http://www.w3.org/2000/svg"><sodipodi:namedview
     id="namedview7"
     pagecolor="#505050"
     bordercolor="#eeeeee"
     borderopacity="1"
     inkscape:pageshadow="0"
     inkscape:pageopacity="0"
     inkscape:pagecheckerboard="0"
     inkscape:document-units="px"
     showgrid="false"
     units="px"
     inkscape:zoom="10.921681"
     inkscape:cx="11.994491"
     inkscape:cy="21.059029"
     inkscape:window-width="1896"
     inkscape:window-height="1035"
     inkscape:window-x="10"
     inkscape:window-y="31"
     inkscape:window-maximized="1"
     inkscape:current-layer="layer1"
     inkscape:showpageshadow="0"
     inkscape:deskcolor="#d1d1d1" /><defs
     id="defs2" /><g
     inkscape:label="Layer 1"
     inkscape:groupmode="layer"
     id="layer1"><g
       id="g3" /><g
       id="g10"
       transform="translate(0.03900719,0.01584911)"><g
         id="g5"
         transform="matrix(0,0.99812541,-0.998189,0,36.134161,11.19118)"
         style="stroke-width:1.00185"><path
           id="path5"
           style="fill:none;stroke:#ffffff;stroke-width:1.00185px;stroke-linecap:round;stroke-linejoin:miter;stroke-opacity:1"
           d="m 12.816997,25.061813 v 2.43573 m 0,-8.238572 v 2.43573 m 1.683556,1.683556 h 2.43573 m -8.238572,0 h 2.43573 m 1.683557,-6.068431 a 6.0684314,6.0684314 0 0 1 6.068431,6.068431 6.0684314,6.0684314 0 0 1 -6.068431,6.068432 6.0684314,6.0684314 0 0 1 -6.068432,-6.068432 6.0684314,6.0684314 0 0 1 6.068432,-6.068431 z" /></g><g
         id="g9"
         style="stroke-width:1.00185"
         transform="matrix(0.998189,0,0,0.99812541,0.00445686,0.02914105)"><path
           style="fill:none;stroke:#ffffff;stroke-width:1.00185;stroke-linecap:round;stroke-linejoin:round;stroke-dasharray:none"
           d="m 31.439003,23.119823 c 1.060258,0 1.919767,0.859509 1.919767,1.919767 v 2.472673 c 0,1.060258 -0.859509,1.919767 -1.919767,1.919767 -1.060258,0 -1.919766,-0.859509 -1.919766,-1.919767 V 25.03959 c 0,-1.060258 0.859508,-1.919767 1.919766,-1.919767 z"
           id="path7"
           sodipodi:nodetypes="scssscs" /><path
           style="fill:none;stroke:#ffffff;stroke-width:1.00185;stroke-linecap:round;stroke-linejoin:round;stroke-dasharray:none"
           d="m 38.40369,23.119824 c 1.060258,0 1.919767,0.859509 1.919767,1.919767 v 2.472673 c 0,1.060258 -0.859509,1.919767 -1.919767,1.919767 -1.060258,0 -1.919766,-0.859509 -1.919766,-1.919767 v -2.472673 c 0,-1.060258 0.859508,-1.919767 1.919766,-1.919767 z"
           id="path8"
           sodipodi:nodetypes="scssscs" /></g><rect
         style="fill:none;stroke:#ffffff;stroke-width:1;stroke-linecap:round;stroke-linejoin:round;stroke-dasharray:none"
         id="rect8"
         width="43"
         height="16.877663"
         x="2.4609928"
         y="15.54532"
         ry="2.5653391" /><rect
         style="fill:none;stroke:#ffffff;stroke-width:1;stroke-linecap:round;stroke-linejoin:round;stroke-dasharray:none"
         id="rect9"
         width="12.993076"
         height="3.2480621"
         x="28.366024"
         y="18.096552" /></g></g></svg>
