<?xml version="1.0" encoding="UTF-8" standalone="no"?>
<!-- Created with Inkscape (http://www.inkscape.org/) -->

<svg
   width="48"
   height="48"
   viewBox="0 0 48 48.000002"
   version="1.1"
   id="svg5"
   inkscape:version="1.3.2 (091e20ef0f, 2023-11-25)"
   xml:space="preserve"
   sodipodi:docname="sgfx.svg"
   xmlns:inkscape="http://www.inkscape.org/namespaces/inkscape"
   xmlns:sodipodi="http://sodipodi.sourceforge.net/DTD/sodipodi-0.dtd"
   xmlns="http://www.w3.org/2000/svg"
   xmlns:svg="http://www.w3.org/2000/svg"><sodipodi:namedview
     id="namedview7"
     pagecolor="#505050"
     bordercolor="#eeeeee"
     borderopacity="1"
     inkscape:pageshadow="0"
     inkscape:pageopacity="0"
     inkscape:pagecheckerboard="0"
     inkscape:document-units="px"
     showgrid="false"
     units="px"
     inkscape:zoom="12.742071"
     inkscape:cx="12.831509"
     inkscape:cy="20.404847"
     inkscape:window-width="1896"
     inkscape:window-height="1035"
     inkscape:window-x="10"
     inkscape:window-y="31"
     inkscape:window-maximized="1"
     inkscape:current-layer="layer1"
     inkscape:showpageshadow="0"
     inkscape:deskcolor="#d1d1d1"
     showguides="true" /><defs
     id="defs2"><inkscape:path-effect
       effect="fillet_chamfer"
       id="path-effect7"
       is_visible="true"
       lpeversion="1"
       nodesatellites_param="F,0,0,1,0,0,0,1 @ F,0,0,1,0,0,0,1 @ F,0,0,1,0,0,0,1 @ F,0,0,1,0,0,0,1 @ F,0,0,1,0,0,0,1 @ F,0,0,1,0,0,0,1 @ F,0,0,1,0,0,0,1 @ F,0,0,1,0,0,0,1 | F,0,0,1,0,0,0,1 @ F,0,0,1,0,0,0,1 @ F,0,0,1,0,0,0,1 @ F,0,0,1,0,0,0,1"
       radius="1"
       unit="px"
       method="auto"
       mode="F"
       chamfer_steps="1"
       flexible="false"
       use_knot_distance="true"
       apply_no_radius="true"
       apply_with_radius="true"
       only_selected="false"
       hide_knots="false" /><inkscape:path-effect
       effect="fillet_chamfer"
       id="path-effect14"
       is_visible="true"
       lpeversion="1"
       nodesatellites_param="F,0,0,1,0,0,0,1 @ F,0,0,1,0,0,0,1 @ F,0,0,1,0,0,0,1 @ F,0,0,1,0,0,0,1 @ F,0,0,1,0,0,0,1 @ F,0,0,1,0,0,0,1 @ F,0,0,1,0,0,0,1 @ F,0,0,1,0,1,0,1 | F,0,0,1,0,0,0,1 @ F,0,0,1,0,0,0,1 @ F,0,0,1,0,0,0,1 @ F,0,0,1,0,0,0,1"
       radius="1"
       unit="px"
       method="auto"
       mode="F"
       chamfer_steps="1"
       flexible="false"
       use_knot_distance="true"
       apply_no_radius="true"
       apply_with_radius="true"
       only_selected="false"
       hide_knots="false" /><inkscape:path-effect
       effect="fillet_chamfer"
       id="path-effect13"
       is_visible="true"
       lpeversion="1"
       nodesatellites_param="F,0,0,1,0,0,0,1 @ F,0,0,1,0,2,0,1 @ F,0,0,1,0,2,0,1 @ F,0,0,1,0,2,0,1 @ F,0,0,1,0,2,0,1 @ F,0,0,1,0,2,0,1 @ F,0,0,1,0,2,0,1 @ F,0,0,1,0,2,0,1 @ F,0,0,1,0,0,0,1"
       radius="2"
       unit="px"
       method="auto"
       mode="F"
       chamfer_steps="1"
       flexible="false"
       use_knot_distance="true"
       apply_no_radius="true"
       apply_with_radius="true"
       only_selected="false"
       hide_knots="false" /></defs><g
     inkscape:label="Layer 1"
     inkscape:groupmode="layer"
     id="layer1"><path
       style="fill:none;stroke:#ffffff;stroke-width:1px;stroke-linecap:round;stroke-linejoin:round;stroke-opacity:1"
       d="m 17.566118,19.797442 v -6.408616 c 0,0 1.367911,-0.05993 6.433882,-0.05993 5.06597,0 6.433882,0.05993 6.433882,0.05993 v 6.408616 c 0,0 0.342481,7.335724 -6.433882,7.335724 -6.776363,0 -6.433882,-7.335724 -6.433882,-7.335724 z"
       id="path9" /><path
       style="fill:none;stroke:#ffffff;stroke-width:1px;stroke-linecap:round;stroke-linejoin:round;stroke-opacity:1"
       d="m 18.008887,14.342874 c 0,0 -2.813092,0.109384 -5.926398,0.352899 -1.100775,0.0861 -2.8840591,0.255606 -3.9759433,0.421614 -1.341752,0.203996 -2.5822135,0.459253 -3.5425236,0.678805 -1.0763684,0.246086 -1.9391848,1.381702 -1.9391848,2.486271 v 14.603393 c 0,1.104569 0.8930466,2.06744 1.9963678,2.118654 2.5428983,0.118037 7.8568499,0.284395 17.8261109,0.30419 1.102057,0.0022 2.890885,0.0022 3.995452,-9e-6 9.972267,-0.01985 15.285381,-0.18636 17.826106,-0.304392 1.100812,-0.05114 1.991827,-1.013874 1.991827,-2.118443 V 18.282463 c 0,-1.104569 -0.8631,-2.240264 -1.939825,-2.486418 -0.960376,-0.219554 -2.20083,-0.474789 -3.542533,-0.678757 -1.091528,-0.165936 -2.874857,-0.335448 -3.976049,-0.421574 -3.113005,-0.243474 -5.925643,-0.35284 -5.925643,-0.35284"
       id="path2"
       sodipodi:nodetypes="csccsccsc"
       inkscape:path-effect="#path-effect13"
       inkscape:original-d="m 18.008887,14.342874 c 0,0 -4.128747,0.160542 -7.918139,0.525627 -3.7893927,0.365086 -7.4659107,1.413962 -7.4659107,1.413962 v 18.603393 c 0,0 4.5345304,0.424793 21.8179317,0.424793 17.283402,0 21.817932,-0.424793 21.817932,-0.424793 V 16.282463 c 0,0 -3.676518,-1.048876 -7.465911,-1.413962 -3.789392,-0.365085 -7.918139,-0.525627 -7.918139,-0.525627"
       transform="translate(-0.44276915,0.41860679)" /><circle
       style="fill:none;stroke:#ffffff;stroke-width:0.999998;stroke-linecap:round;stroke-linejoin:round"
       id="circle4"
       cx="8.5646868"
       cy="28.309366"
       r="3.2131865" /><path
       style="fill:none;stroke:#ffffff;stroke-width:1px;stroke-linecap:round;stroke-linejoin:round;stroke-opacity:1"
       d="M 37.756478,33.224202 24,33.229002 10.243522,33.224202 c 2.100143,-0.72074 3.515828,-2.693596 3.52074,-4.914963 8e-5,-2.871482 -2.327736,-5.199299 -5.1992186,-5.199219 -1.0982776,0.0044 -2.1669413,0.35655 -3.0557973,1.000468 l -0.00306,-5.798099 H 17.566118 m 12.867764,0 h 12.059972 l -0.0031,5.798099 v 3.410464"
       id="path5"
       sodipodi:nodetypes="cccccccccccc"
       inkscape:path-effect="#path-effect14"
       inkscape:original-d="M 37.756478,33.224202 24,33.229002 10.243522,33.224202 c 2.100143,-0.72074 3.515828,-2.693596 3.52074,-4.914963 8e-5,-2.871482 -2.327736,-5.199299 -5.1992186,-5.199219 -1.0982776,0.0044 -2.1669413,0.35655 -3.0557973,1.000468 l -0.00306,-5.798099 H 17.566118 m 12.867764,0 h 12.059972 l -0.0031,5.798099 v 3.410464" /><path
       id="circle6"
       style="fill:none;stroke:#ffffff;stroke-width:1;stroke-linecap:round;stroke-linejoin:round"
       d="m 42.489914,27.520144 c 0.626348,0.602793 1.017032,1.455767 1.017032,2.401439 0,1.826636 -1.457635,3.307418 -3.255719,3.307418 h -6.51144"
       sodipodi:nodetypes="cscc" /><circle
       style="fill:none;stroke:#ffffff;stroke-width:0.999998;stroke-linecap:round;stroke-linejoin:round"
       id="path8"
       cx="33.791485"
       cy="29.921585"
       r="1.5788052" /><circle
       style="fill:none;stroke:#ffffff;stroke-width:0.999998;stroke-linecap:round;stroke-linejoin:round"
       id="circle9"
       cx="-40.199532"
       cy="29.921585"
       r="1.5788052"
       transform="scale(-1,1)" /><g
       id="g11"
       transform="matrix(0.51142746,0,0,0.51142746,3.9580263,14.045266)"
       style="stroke-width:1.95531"><path
         style="fill:none;stroke:#ffffff;stroke-width:1.95531px;stroke-linecap:round;stroke-linejoin:miter;stroke-opacity:1"
         d="M 9.0074558,31.103945 V 24.677572"
         id="path10"
         sodipodi:nodetypes="cc" /><path
         style="fill:none;stroke:#ffffff;stroke-width:1.95531px;stroke-linecap:round;stroke-linejoin:miter;stroke-opacity:1"
         d="M 5.7942693,27.890759 H 12.220642"
         id="path11"
         sodipodi:nodetypes="cc" /></g><g
       id="g12"
       transform="translate(-0.95000915,0.41860679)"><path
         style="fill:none;stroke:#ffffff;stroke-width:1px;stroke-linecap:round;stroke-linejoin:round;stroke-opacity:1"
         d="m 20.939143,29.548638 h 1.738462"
         id="path3" /><path
         style="fill:none;stroke:#ffffff;stroke-width:1px;stroke-linecap:round;stroke-linejoin:round;stroke-opacity:1"
         d="m 26.336875,29.548638 h 1.738462"
         id="path12" /></g><path
       style="fill:none;stroke:#ffffff;stroke-width:1px;stroke-linecap:round;stroke-linejoin:round;stroke-opacity:1"
       d="m 33.791485,21.230708 v 1.97702"
       id="path1"
       sodipodi:nodetypes="cc" /><path
       style="fill:none;stroke:#ffffff;stroke-width:1px;stroke-linecap:round;stroke-linejoin:round;stroke-opacity:1"
       d="m 40.199532,21.230708 v 1.97702"
       id="path4"
       sodipodi:nodetypes="cc" /><path
       id="path6"
       style="fill:none;stroke:#ffffff;stroke-width:1px;stroke-linecap:round;stroke-linejoin:round;stroke-opacity:1"
       d="M 8.5644531 20.244141 A 8.0646877 8.0646877 0 0 0 5.5078125 20.863281 L 5.5097656 24.111328 C 6.3986207 23.467411 7.4661766 23.113775 8.5644531 23.109375 C 11.435933 23.109295 13.763752 25.437115 13.763672 28.308594 C 13.75876 30.529959 12.344282 32.50387 10.244141 33.224609 L 14.933594 33.226562 A 8.0646877 8.0646877 0 0 0 16.628906 28.308594 A 8.0646877 8.0646877 0 0 0 8.5644531 20.244141 z " /><path
       style="fill:none;stroke:#ffffff;stroke-width:1px;stroke-linecap:round;stroke-linejoin:miter;stroke-opacity:1"
       d="m 13.462051,30.045666 h 2.971193"
       id="path13"
       sodipodi:nodetypes="cc" /><path
       style="fill:none;stroke:#ffffff;stroke-width:1px;stroke-linecap:round;stroke-linejoin:miter;stroke-opacity:1"
       d="m 13.692268,27.441929 2.88991,0"
       id="path14"
       sodipodi:nodetypes="cc" /><path
       style="fill:none;stroke:#ffffff;stroke-width:1px;stroke-linecap:round;stroke-linejoin:miter;stroke-opacity:1"
       d="m 12.777872,25.096181 3.183513,0"
       id="path15"
       sodipodi:nodetypes="cc" /><path
       style="fill:none;stroke:#ffffff;stroke-width:1px;stroke-linecap:round;stroke-linejoin:miter;stroke-opacity:1"
       d="m 8.5644531,23.109375 6.1645739,0"
       id="path16"
       sodipodi:nodetypes="cc" /></g></svg>
