<?xml version="1.0" encoding="UTF-8" standalone="no"?>
<!-- Created with Inkscape (http://www.inkscape.org/) -->

<svg
   width="48"
   height="48"
   viewBox="0 0 48 48.000002"
   version="1.1"
   id="svg5"
   inkscape:version="1.3.2 (091e20ef0f, 2023-11-25)"
   xml:space="preserve"
   sodipodi:docname="pic80.svg"
   xmlns:inkscape="http://www.inkscape.org/namespaces/inkscape"
   xmlns:sodipodi="http://sodipodi.sourceforge.net/DTD/sodipodi-0.dtd"
   xmlns="http://www.w3.org/2000/svg"
   xmlns:svg="http://www.w3.org/2000/svg"><sodipodi:namedview
     id="namedview7"
     pagecolor="#505050"
     bordercolor="#eeeeee"
     borderopacity="1"
     inkscape:pageshadow="0"
     inkscape:pageopacity="0"
     inkscape:pagecheckerboard="0"
     inkscape:document-units="px"
     showgrid="false"
     units="px"
     inkscape:zoom="5.9895381"
     inkscape:cx="-9.5165936"
     inkscape:cy="1.6695778"
     inkscape:window-width="1896"
     inkscape:window-height="1035"
     inkscape:window-x="10"
     inkscape:window-y="31"
     inkscape:window-maximized="1"
     inkscape:current-layer="layer1"
     inkscape:showpageshadow="0"
     inkscape:deskcolor="#d1d1d1" /><defs
     id="defs2"><inkscape:path-effect
       effect="fillet_chamfer"
       id="path-effect22"
       is_visible="true"
       lpeversion="1"
       nodesatellites_param="F,0,0,1,0,0,0,1 @ F,0,0,1,0,0,0,1 @ F,0,0,1,0,0.67254332,0,1 @ F,0,1,1,0,0.67254332,0,1"
       radius="0"
       unit="px"
       method="auto"
       mode="F"
       chamfer_steps="1"
       flexible="false"
       use_knot_distance="true"
       apply_no_radius="true"
       apply_with_radius="true"
       only_selected="false"
       hide_knots="false" /><inkscape:path-effect
       effect="fillet_chamfer"
       id="path-effect20"
       is_visible="true"
       lpeversion="1"
       nodesatellites_param="F,0,0,1,0,0,0,1 @ F,0,0,1,0,0,0,1 @ F,0,0,1,0,0.67254332,0,1 @ F,0,1,1,0,0.67254332,0,1"
       radius="0"
       unit="px"
       method="auto"
       mode="F"
       chamfer_steps="1"
       flexible="false"
       use_knot_distance="true"
       apply_no_radius="true"
       apply_with_radius="true"
       only_selected="false"
       hide_knots="false" /><inkscape:path-effect
       effect="fillet_chamfer"
       id="path-effect19"
       is_visible="true"
       lpeversion="1"
       nodesatellites_param="F,0,0,1,0,0,0,1 @ F,0,0,1,0,0,0,1 @ F,0,1,1,0,0.6213955,0,1 @ F,0,0,1,0,0.6213955,0,1"
       radius="0"
       unit="px"
       method="auto"
       mode="F"
       chamfer_steps="1"
       flexible="false"
       use_knot_distance="true"
       apply_no_radius="true"
       apply_with_radius="true"
       only_selected="false"
       hide_knots="false" /><inkscape:path-effect
       effect="fillet_chamfer"
       id="path-effect18"
       is_visible="true"
       lpeversion="1"
       nodesatellites_param="F,0,1,1,0,0,0,1 @ F,0,1,1,0,1.2306967,0,1 @ F,0,0,1,0,1.2306967,0,1 @ F,0,1,1,0,1.2306967,0,1 @ F,0,1,1,0,0,0,1"
       radius="0"
       unit="px"
       method="auto"
       mode="F"
       chamfer_steps="1"
       flexible="false"
       use_knot_distance="true"
       apply_no_radius="true"
       apply_with_radius="true"
       only_selected="false"
       hide_knots="false" /><inkscape:path-effect
       effect="fillet_chamfer"
       id="path-effect17"
       is_visible="true"
       lpeversion="1"
       nodesatellites_param="F,0,0,1,0,1.0778001,0,1 @ F,0,1,1,0,1.0778001,0,1 @ F,0,1,1,0,1.0778001,0,1 @ F,0,1,1,0,1.0778001,0,1 @ F,0,1,1,0,1.0778001,0,1 @ F,0,1,1,0,1.0778001,0,1"
       radius="0"
       unit="px"
       method="auto"
       mode="F"
       chamfer_steps="1"
       flexible="false"
       use_knot_distance="true"
       apply_no_radius="true"
       apply_with_radius="true"
       only_selected="false"
       hide_knots="false" /></defs><g
     inkscape:label="Layer 1"
     inkscape:groupmode="layer"
     id="layer1"><path
       id="rect3"
       style="fill:none;stroke:#ffffff;stroke-linecap:round;stroke-linejoin:round"
       d="M 7.7099714,7.706018 V 5.8850045 A 1.2306967,1.2306967 135 0 1 8.9406681,4.6543078 l 27.3614789,0 a 1.2306967,1.2306967 45 0 1 1.230697,1.2306967 V 33.475632 a 1.2306967,1.2306967 135 0 1 -1.230697,1.230697 h -1.665341"
       sodipodi:nodetypes="ccccc"
       inkscape:path-effect="#path-effect18"
       inkscape:original-d="m 7.7099714,7.706018 0,-3.0517102 H 37.532844 V 34.706329 l -2.896038,0" /><path
       id="rect6"
       style="fill:none;stroke:#ffffff;stroke-linecap:round;stroke-linejoin:round"
       d="m 13.563661,15.863997 h 1.755016 c 0.265415,0 0.479089,0.213674 0.479089,0.479089 v 7.72736 c 0,0.265415 -0.213674,0.479089 -0.479089,0.479089 h -1.755016 c -0.265415,0 -0.479088,-0.213674 -0.479088,-0.479089 v -7.72736 c 0,-0.265415 0.213673,-0.479089 0.479088,-0.479089 z" /><path
       id="rect7"
       style="fill:none;stroke:#ffffff;stroke-linecap:round;stroke-linejoin:round"
       d="m 24.508767,15.863997 h 1.755016 c 0.265415,0 0.479088,0.213674 0.479088,0.479089 v 7.72736 c 0,0.265415 -0.213673,0.479089 -0.479088,0.479089 h -1.755016 c -0.265415,0 -0.479089,-0.213674 -0.479089,-0.479089 v -7.72736 c 0,-0.265415 0.213674,-0.479089 0.479089,-0.479089 z" /><path
       id="rect8"
       style="fill:none;stroke:#ffffff;stroke-linecap:round;stroke-linejoin:round"
       d="m 13.600551,29.675005 h 1.638574 c 0.265415,0 0.479088,0.213673 0.479088,0.479088 v 1.638574 c 0,0.265415 -0.213673,0.479088 -0.479088,0.479088 h -1.638574 c -0.265415,0 -0.479088,-0.213673 -0.479088,-0.479088 v -1.638574 c 0,-0.265415 0.213673,-0.479088 0.479088,-0.479088 z" /><path
       id="rect9"
       style="fill:none;stroke:#ffffff;stroke-linecap:round;stroke-linejoin:round"
       d="m 24.2829,29.675005 h 1.638574 c 0.265415,0 0.479088,0.213673 0.479088,0.479088 v 1.638574 c 0,0.265415 -0.213673,0.479088 -0.479088,0.479088 H 24.2829 c -0.265415,0 -0.479088,-0.213673 -0.479088,-0.479088 v -1.638574 c 0,-0.265415 0.213673,-0.479088 0.479088,-0.479088 z" /><path
       id="rect10"
       style="fill:none;stroke:#ffffff;stroke-linecap:round;stroke-linejoin:round"
       d="m 16.197301,32.271755 h 7.127423 c 0.265415,0 0.479088,0.213674 0.479088,0.479089 v 1.638573 c 0,0.265415 -0.213673,0.479088 -0.479088,0.479088 h -7.127423 c -0.265415,0 -0.479088,-0.213673 -0.479088,-0.479088 v -1.638573 c 0,-0.265415 0.213673,-0.479089 0.479088,-0.479089 z" /><path
       id="rect11"
       style="fill:none;stroke:#ffffff;stroke-width:0.999999;stroke-linecap:round;stroke-linejoin:round"
       d="m 40.594438,24.180672 v 3.061596 h -3.061594 v -3.061596 z"
       sodipodi:nodetypes="ccccc" /><path
       id="path15"
       style="fill:none;stroke:#ffffff;stroke-width:0.999999;stroke-linecap:round;stroke-linejoin:round"
       d="m 40.59375,14.996094 v 9.185547 h 3.0625 v -9.185547 z"
       sodipodi:nodetypes="ccccc" /><path
       style="fill:none;stroke:#ffffff;stroke-width:1px;stroke-linecap:butt;stroke-linejoin:miter;stroke-opacity:1"
       d="M 4.8139343,37.758039 H 34.636806"
       id="path17" /><path
       id="rect1"
       style="fill:none;stroke:#ffffff;stroke-linecap:round;stroke-linejoin:round"
       d="m 4.8144531,8.7828782 v 27.8971338 2.529297 a 1.0778001,1.0778001 45 0 0 1.0778001,1.0778 H 33.558919 a 1.0778001,1.0778001 135 0 0 1.0778,-1.0778 V 38.835612 8.7828782 a 1.0778001,1.0778001 45 0 0 -1.0778,-1.0778001 H 5.8922532 A 1.0778001,1.0778001 135 0 0 4.8144531,8.7828782 Z"
       inkscape:path-effect="#path-effect17"
       inkscape:original-d="M 4.8144531,7.7050781 V 37.757812 40.287109 H 34.636719 V 37.757812 7.7050781 Z" /><g
       id="g22"
       transform="translate(0.3469566)"><path
         id="rect13"
         style="fill:none;stroke:#ffffff;stroke-width:1;stroke-linecap:round;stroke-linejoin:round;stroke-dasharray:none"
         d="m 7.6957171,40.287987 h 9.3679809 v 2.437169 a 0.67254332,0.67254332 135 0 1 -0.672543,0.672543 H 8.3682604 A 0.67254332,0.67254332 45 0 1 7.6957171,42.725156 Z"
         inkscape:path-effect="#path-effect20"
         inkscape:original-d="m 7.6957171,40.287987 h 9.3679809 v 3.109712 H 7.6957171 Z" /><path
         id="path20"
         style="fill:none;stroke:#ffffff;stroke-width:1;stroke-linecap:round;stroke-linejoin:round;stroke-dasharray:none"
         d="m 7.6957171,40.287987 h 9.3679809 v 2.437169 a 0.67254332,0.67254332 135 0 1 -0.672543,0.672543 H 8.3682604 A 0.67254332,0.67254332 45 0 1 7.6957171,42.725156 Z"
         inkscape:path-effect="#path-effect22"
         inkscape:original-d="m 7.6957171,40.287987 h 9.3679809 v 3.109712 H 7.6957171 Z"
         transform="translate(13.997412)" /></g></g></svg>
