<?xml version="1.0" encoding="UTF-8" standalone="no"?>
<!-- Created with Inkscape (http://www.inkscape.org/) -->

<svg
   width="48"
   height="48"
   viewBox="0 0 48 48.000002"
   version="1.1"
   id="svg5"
   inkscape:version="1.3.2 (091e20ef0f, 2023-11-25)"
   xml:space="preserve"
   sodipodi:docname="vb.svg"
   xmlns:inkscape="http://www.inkscape.org/namespaces/inkscape"
   xmlns:sodipodi="http://sodipodi.sourceforge.net/DTD/sodipodi-0.dtd"
   xmlns="http://www.w3.org/2000/svg"
   xmlns:svg="http://www.w3.org/2000/svg"><sodipodi:namedview
     id="namedview7"
     pagecolor="#505050"
     bordercolor="#eeeeee"
     borderopacity="1"
     inkscape:pageshadow="0"
     inkscape:pageopacity="0"
     inkscape:pagecheckerboard="0"
     inkscape:document-units="px"
     showgrid="false"
     units="px"
     inkscape:zoom="2.4370321"
     inkscape:cx="-100.94245"
     inkscape:cy="45.547204"
     inkscape:window-width="1896"
     inkscape:window-height="1035"
     inkscape:window-x="10"
     inkscape:window-y="31"
     inkscape:window-maximized="1"
     inkscape:current-layer="layer1"
     inkscape:showpageshadow="0"
     inkscape:deskcolor="#d1d1d1"
     showguides="true"><sodipodi:guide
       position="24,34.253596"
       orientation="-1,0"
       id="guide1"
       inkscape:locked="false"
       inkscape:label=""
       inkscape:color="rgb(0,134,229)" /></sodipodi:namedview><defs
     id="defs2" /><g
     inkscape:label="Layer 1"
     inkscape:groupmode="layer"
     id="layer1"><g
       id="g15"
       transform="matrix(0.96736686,0,0,0.96719974,0.78319538,5.0861497)"
       style="stroke-width:1.03382"><g
         id="g6"
         style="stroke-width:1.03382"><path
           id="path1"
           style="fill:none;stroke:#fff;stroke-width:1.03382;stroke-linecap:round;stroke-linejoin:round;stroke-dasharray:none"
           d="M 9.8226053,1.6008337 C 6.5394251,1.5037339 3.7992072,4.0866446 3.7022598,7.3698292 3.6209818,10.268479 5.6421145,12.80316 8.4861169,13.369226 l -0.0042,0.0097 c 3.2502981,0.510683 6.4226071,1.618805 9.7046411,1.877325 2.345443,0.184746 4.314492,-1.780389 4.383734,-4.132078 C 22.614035,9.6155082 21.856153,8.1964002 20.578059,7.3937208 18.004401,5.7742003 15.429369,4.1566553 12.854826,2.5384673 11.947689,1.9570063 10.899623,1.6329198 9.8226053,1.6008337 Z"
           sodipodi:nodetypes="ccccscccc" /><path
           style="fill:none;stroke:#fff;stroke-width:1.03382px;stroke-linecap:round;stroke-linejoin:miter;stroke-opacity:1"
           d="M 9.8187065,5.0475485 V 9.8779408"
           id="path3" /><path
           style="fill:none;stroke:#fff;stroke-width:1.03382px;stroke-linecap:round;stroke-linejoin:miter;stroke-opacity:1"
           d="M 12.233903,7.4627446 H 7.4035103"
           id="path4" /><circle
           style="fill:none;stroke:#fff;stroke-width:1.03382;stroke-linecap:round;stroke-linejoin:round;stroke-dasharray:none"
           id="path5"
           cx="15.221185"
           cy="9.7563705"
           r="1.293626" /><circle
           style="fill:none;stroke:#fff;stroke-width:1.03382;stroke-linecap:round;stroke-linejoin:round;stroke-dasharray:none"
           id="circle5"
           cx="19.010351"
           cy="11.449938"
           r="1.293626" /><path
           style="fill:none;stroke:#fff;stroke-width:1.03382px;stroke-linecap:round;stroke-linejoin:miter;stroke-opacity:1"
           d="M 17.959548,5.7468075 H 30.040452"
           id="path6"
           sodipodi:nodetypes="cc" /></g><g
         id="g11"
         transform="matrix(-1,0,0,1,48,0)"
         style="stroke-width:1.03382"><path
           id="path7"
           style="fill:none;stroke:#fff;stroke-width:1.03382;stroke-linecap:round;stroke-linejoin:round;stroke-dasharray:none"
           d="M 9.8226053,1.6008337 C 6.5394251,1.5037339 3.7992072,4.0866446 3.7022598,7.3698292 3.6209818,10.268479 5.6421145,12.80316 8.4861169,13.369226 l -0.0042,0.0097 c 3.2502981,0.510683 6.4226071,1.618805 9.7046411,1.877325 2.345443,0.184746 4.314492,-1.780389 4.383734,-4.132078 C 22.614035,9.6155082 21.856153,8.1964002 20.578059,7.3937208 18.004401,5.7742003 15.429369,4.1566553 12.854826,2.5384673 11.947689,1.9570063 10.899623,1.6329198 9.8226053,1.6008337 Z"
           sodipodi:nodetypes="ccccscccc" /><path
           style="fill:none;stroke:#fff;stroke-width:1.03382;stroke-linecap:round;stroke-linejoin:round;stroke-dasharray:none;stroke-opacity:1"
           d="m 3.9278023,9.1700002 c 0,0 1.8805788,4.2878818 1.6868417,5.9055368 C 5.4209068,16.693191 3.2800464,17.755568 2.2076882,25.33849 1.13533,32.921413 2.0518558,37.241986 5.1187509,37.496054 8.0817462,37.711886 9.1341457,35.83543 9.8217586,29.051854 10.509372,22.268278 10.294135,18.432875 11.715063,17.08655 c 1.420928,-1.346325 4.465228,-2 4.465228,-2 l 0.01893,9.871512 h 15.601556 l -0.01893,-9.871512 c 0,0 3.082162,0.653675 4.50309,2 1.420928,1.346325 1.205691,5.181728 1.893304,11.965304 0.687613,6.783576 1.740013,8.660032 4.703008,8.4442 3.066895,-0.254068 3.983421,-4.574641 2.911063,-12.157564 -1.072358,-7.582922 -3.213219,-8.645299 -3.406956,-10.262953 -0.193737,-1.617655 1.686842,-5.9055368 1.686842,-5.9055368"
           id="path8"
           sodipodi:nodetypes="csscssccccsscssc" /><path
           style="fill:none;stroke:#fff;stroke-width:1.03382px;stroke-linecap:round;stroke-linejoin:miter;stroke-opacity:1"
           d="M 9.8187065,5.0475485 V 9.8779408"
           id="path9" /><path
           style="fill:none;stroke:#fff;stroke-width:1.03382px;stroke-linecap:round;stroke-linejoin:miter;stroke-opacity:1"
           d="M 12.233903,7.4627446 H 7.4035103"
           id="path10" /><circle
           style="fill:none;stroke:#fff;stroke-width:1.03382;stroke-linecap:round;stroke-linejoin:round;stroke-dasharray:none"
           id="circle10"
           cx="15.221185"
           cy="9.7563705"
           r="1.293626" /><circle
           style="fill:none;stroke:#fff;stroke-width:1.03382;stroke-linecap:round;stroke-linejoin:round;stroke-dasharray:none"
           id="circle11"
           cx="19.010351"
           cy="11.449938"
           r="1.293626" /></g><path
         style="fill:none;stroke:#fff;stroke-width:1.03382px;stroke-linecap:round;stroke-linejoin:round;stroke-opacity:1"
         d="m 22.70244,7.1914416 2.59512,-0.015768"
         id="path13"
         sodipodi:nodetypes="cc" /></g></g></svg>
