<?xml version="1.0" encoding="UTF-8" standalone="no"?>
<!-- Created with Inkscape (http://www.inkscape.org/) -->

<svg
   width="48"
   height="48"
   viewBox="0 0 48 48.000002"
   version="1.1"
   id="svg5"
   inkscape:version="1.3.2 (091e20ef0f, 2023-11-25)"
   xml:space="preserve"
   sodipodi:docname="vectrex.svg"
   xmlns:inkscape="http://www.inkscape.org/namespaces/inkscape"
   xmlns:sodipodi="http://sodipodi.sourceforge.net/DTD/sodipodi-0.dtd"
   xmlns="http://www.w3.org/2000/svg"
   xmlns:svg="http://www.w3.org/2000/svg"><sodipodi:namedview
     id="namedview7"
     pagecolor="#505050"
     bordercolor="#eeeeee"
     borderopacity="1"
     inkscape:pageshadow="0"
     inkscape:pageopacity="0"
     inkscape:pagecheckerboard="0"
     inkscape:document-units="px"
     showgrid="false"
     units="px"
     inkscape:zoom="5.182192"
     inkscape:cx="-18.621464"
     inkscape:cy="38.014801"
     inkscape:window-width="1896"
     inkscape:window-height="1035"
     inkscape:window-x="10"
     inkscape:window-y="31"
     inkscape:window-maximized="1"
     inkscape:current-layer="layer1"
     inkscape:showpageshadow="0"
     inkscape:deskcolor="#d1d1d1" /><defs
     id="defs2" /><g
     inkscape:label="Layer 1"
     inkscape:groupmode="layer"
     id="layer1"><g
       id="g7"
       transform="translate(-0.00254611)"><g
         id="g6"
         transform="matrix(1.2584741,0,0,1.2712352,-6.1824731,-2.9570617)"
         style="stroke-width:0.790615"><path
           id="circle6"
           style="fill:none;stroke:#ffffff;stroke-width:0.790615;stroke-linecap:round;stroke-linejoin:round"
           d="m 26.816406,15.009766 h -3.185547 v 1.59375 c 0,0.879683 0.714067,1.591796 1.59375,1.591796 0.879683,0 1.591797,-0.712113 1.591797,-1.591796 z" /><path
           id="rect1"
           style="fill:none;stroke:#ffffff;stroke-width:0.790615;stroke-linecap:round;stroke-linejoin:round"
           d="M 7.5131381,15.010639 H 40.457685 c 0.340118,0 0.613931,0.273813 0.613931,0.613931 v 11.16255 c 0,0.340117 -0.273813,0.613931 -0.613931,0.613931 H 7.5131381 c -0.3401178,0 -0.613931,-0.273814 -0.613931,-0.613931 V 15.62457 c 0,-0.340118 0.2738132,-0.613931 0.613931,-0.613931 z" /><path
           id="path1"
           style="fill:none;stroke:#ffffff;stroke-width:0.790615;stroke-linecap:round;stroke-linejoin:round"
           d="M 18.463086,21.205845 A 3.1228449,3.1228449 0 0 1 15.340241,24.32869 3.1228449,3.1228449 0 0 1 12.217396,21.205845 3.1228449,3.1228449 0 0 1 15.340241,18.083 3.1228449,3.1228449 0 0 1 18.463086,21.205845 Z" /><path
           id="path2"
           style="fill:none;stroke:#ffffff;stroke-width:0.790615;stroke-linecap:round;stroke-linejoin:round"
           d="m 16.396548,21.205845 a 1.056307,1.056307 0 0 1 -1.056307,1.056307 1.056307,1.056307 0 0 1 -1.056307,-1.056307 1.056307,1.056307 0 0 1 1.056307,-1.056307 1.056307,1.056307 0 0 1 1.056307,1.056307 z" /><path
           id="circle2"
           style="fill:none;stroke:#ffffff;stroke-width:0.790615;stroke-linecap:round;stroke-linejoin:round"
           d="m 24.297451,21.205845 a 1.2570977,1.2570977 0 0 1 -1.257097,1.257098 1.2570977,1.2570977 0 0 1 -1.257098,-1.257098 1.2570977,1.2570977 0 0 1 1.257098,-1.257098 1.2570977,1.2570977 0 0 1 1.257097,1.257098 z" /><path
           id="circle3"
           style="fill:none;stroke:#ffffff;stroke-width:0.790615;stroke-linecap:round;stroke-linejoin:round"
           d="m 28.714316,21.205845 a 1.2570977,1.2570977 0 0 1 -1.257098,1.257098 1.2570977,1.2570977 0 0 1 -1.257098,-1.257098 1.2570977,1.2570977 0 0 1 1.257098,-1.257098 1.2570977,1.2570977 0 0 1 1.257098,1.257098 z" /><path
           id="circle4"
           style="fill:none;stroke:#ffffff;stroke-width:0.790615;stroke-linecap:round;stroke-linejoin:round"
           d="m 33.13118,21.205845 a 1.2570977,1.2570977 0 0 1 -1.257097,1.257098 1.2570977,1.2570977 0 0 1 -1.257098,-1.257098 1.2570977,1.2570977 0 0 1 1.257098,-1.257098 1.2570977,1.2570977 0 0 1 1.257097,1.257098 z" /><path
           id="circle5"
           style="fill:none;stroke:#ffffff;stroke-width:0.790615;stroke-linecap:round;stroke-linejoin:round"
           d="m 37.548045,21.205845 a 1.2570977,1.2570977 0 0 1 -1.257098,1.257098 1.2570977,1.2570977 0 0 1 -1.257098,-1.257098 1.2570977,1.2570977 0 0 1 1.257098,-1.257098 1.2570977,1.2570977 0 0 1 1.257098,1.257098 z" /></g></g></g></svg>
