<?xml version="1.0" encoding="UTF-8" standalone="no"?>
<!-- Created with Inkscape (http://www.inkscape.org/) -->

<svg
   width="48"
   height="48"
   viewBox="0 0 48 48.000002"
   version="1.1"
   id="svg5"
   inkscape:version="1.3.2 (091e20ef0f, 2023-11-25)"
   xml:space="preserve"
   sodipodi:docname="zxs.svg"
   xmlns:inkscape="http://www.inkscape.org/namespaces/inkscape"
   xmlns:sodipodi="http://sodipodi.sourceforge.net/DTD/sodipodi-0.dtd"
   xmlns="http://www.w3.org/2000/svg"
   xmlns:svg="http://www.w3.org/2000/svg"><sodipodi:namedview
     id="namedview7"
     pagecolor="#505050"
     bordercolor="#eeeeee"
     borderopacity="1"
     inkscape:pageshadow="0"
     inkscape:pageopacity="0"
     inkscape:pagecheckerboard="0"
     inkscape:document-units="px"
     showgrid="false"
     units="px"
     inkscape:zoom="11.77285"
     inkscape:cx="6.9651785"
     inkscape:cy="24.632948"
     inkscape:window-width="1896"
     inkscape:window-height="1035"
     inkscape:window-x="10"
     inkscape:window-y="31"
     inkscape:window-maximized="1"
     inkscape:current-layer="layer1"
     inkscape:showpageshadow="0"
     inkscape:deskcolor="#d1d1d1" /><defs
     id="defs2"><style
       id="style1">.cls-1{fill:none;stroke:#fff;stroke-linecap:round;stroke-linejoin:round;}</style></defs><g
     inkscape:label="Layer 1"
     inkscape:groupmode="layer"
     id="layer1"><path
       id="rect48"
       style="fill:none;stroke:#ffffff;stroke-width:1;stroke-linecap:round;stroke-linejoin:round"
       d="m 2.5000005,19.678392 c 0,-2.30277 1.8536648,-4.156624 4.156199,-4.156624 H 41.343801 c 2.302534,0 4.156199,1.853854 4.156199,4.156624"
       sodipodi:nodetypes="cssc" /><path
       id="rect1"
       style="fill:none;stroke:#ffffff;stroke-width:1;stroke-linecap:round;stroke-linejoin:round"
       d="M 3.1187729,10.295239 H 44.881228 c 0.342799,0 0.618772,0.276 0.618772,0.618835 v 26.171852 c 0,0.342835 -0.275973,0.618835 -0.618772,0.618835 H 3.1187729 c -0.3428,0 -0.6187724,-0.276 -0.6187724,-0.618835 V 10.914074 c 0,-0.342835 0.2759724,-0.618835 0.6187724,-0.618835 z" /><g
       id="g49"
       transform="matrix(1,0,0,0.89899004,0,3.5071435)"
       style="stroke-width:1.05468"><g
         id="g18"
         transform="matrix(1.0292,0,0,1.0362489,-0.45407281,4.657742)"
         style="stroke-width:1.02127"><path
           d="m 32.609749,11.662155 v 2.720216 h 4.53 v -2.720216 z"
           id="path6"
           style="fill:none;stroke:#ffffff;stroke-width:1.02127;stroke-linejoin:round" /><path
           d="m 25.809749,11.662155 v 2.720216 h 4.53 v -2.720216 z"
           id="path5"
           style="fill:none;stroke:#ffffff;stroke-width:1.02127;stroke-linejoin:round" /><path
           d="m 19.009749,11.662155 v 2.720216 h 4.54 v -2.720216 z"
           id="path4"
           style="fill:none;stroke:#ffffff;stroke-width:1.02127;stroke-linejoin:round" /><path
           d="m 12.219749,11.662155 v 2.720216 h 4.53 v -2.720216 z"
           id="path3"
           style="fill:none;stroke:#ffffff;stroke-width:1.02127;stroke-linejoin:round" /><path
           d="m 5.4197493,11.662155 v 2.720216 h 4.53 v -2.720216 z"
           id="path1"
           style="fill:none;stroke:#ffffff;stroke-width:1.02127;stroke-linejoin:round" /></g><g
         id="g33"
         transform="matrix(1.0292,0,0,1.0362489,1.1743483,9.7102752)"
         style="stroke-width:1.02127"><path
           d="m 32.609749,11.662155 v 2.720216 h 4.53 v -2.720216 z"
           id="path29"
           style="fill:none;stroke:#ffffff;stroke-width:1.02127;stroke-linejoin:round" /><path
           d="m 25.809749,11.662155 v 2.720216 h 4.53 v -2.720216 z"
           id="path30"
           style="fill:none;stroke:#ffffff;stroke-width:1.02127;stroke-linejoin:round" /><path
           d="m 19.009749,11.662155 v 2.720216 h 4.54 v -2.720216 z"
           id="path31"
           style="fill:none;stroke:#ffffff;stroke-width:1.02127;stroke-linejoin:round" /><path
           d="m 12.219749,11.662155 v 2.720216 h 4.53 v -2.720216 z"
           id="path32"
           style="fill:none;stroke:#ffffff;stroke-width:1.02127;stroke-linejoin:round" /><path
           d="m 5.4197493,11.662155 v 2.720216 h 4.53 v -2.720216 z"
           id="path33"
           style="fill:none;stroke:#ffffff;stroke-width:1.02127;stroke-linejoin:round" /></g><g
         id="g38"
         transform="matrix(1.0292,0,0,1.0362489,3.250117,14.762808)"
         style="stroke-width:1.02127"><path
           d="m 32.609749,11.662155 v 2.720216 h 4.53 v -2.720216 z"
           id="path34"
           style="fill:none;stroke:#ffffff;stroke-width:1.02127;stroke-linejoin:round" /><path
           d="m 25.809749,11.662155 v 2.720216 h 4.53 v -2.720216 z"
           id="path35"
           style="fill:none;stroke:#ffffff;stroke-width:1.02127;stroke-linejoin:round" /><path
           d="m 19.009749,11.662155 v 2.720216 h 4.54 v -2.720216 z"
           id="path36"
           style="fill:none;stroke:#ffffff;stroke-width:1.02127;stroke-linejoin:round" /><path
           d="m 12.219749,11.662155 v 2.720216 h 4.53 v -2.720216 z"
           id="path37"
           style="fill:none;stroke:#ffffff;stroke-width:1.02127;stroke-linejoin:round" /><path
           d="m 5.4197493,11.662155 v 2.720216 h 4.53 v -2.720216 z"
           id="path38"
           style="fill:none;stroke:#ffffff;stroke-width:1.02127;stroke-linejoin:round" /></g><g
         id="g43"
         transform="matrix(1.0292,0,0,1.0362489,-0.45407281,19.815342)"
         style="stroke-width:1.02127"><path
           d="m 32.609749,11.662155 v 2.720216 h 4.53 v -2.720216 z"
           id="path39"
           style="fill:none;stroke:#ffffff;stroke-width:1.02127;stroke-linejoin:round" /><path
           d="m 25.809749,11.662155 v 2.720216 h 4.53 v -2.720216 z"
           id="path40"
           style="fill:none;stroke:#ffffff;stroke-width:1.02127;stroke-linejoin:round" /><path
           d="m 19.009749,11.662155 v 2.720216 h 4.54 v -2.720216 z"
           id="path41"
           style="fill:none;stroke:#ffffff;stroke-width:1.02127;stroke-linejoin:round" /><path
           d="m 12.219749,11.662155 v 2.720216 h 4.53 v -2.720216 z"
           id="path42"
           style="fill:none;stroke:#ffffff;stroke-width:1.02127;stroke-linejoin:round" /><path
           d="m 5.4197493,11.662155 v 2.720216 h 4.53 v -2.720216 z"
           id="path43"
           style="fill:none;stroke:#ffffff;stroke-width:1.02127;stroke-linejoin:round" /></g></g><path
       style="fill:none;stroke:#ffffff;stroke-width:1px;stroke-linecap:round;stroke-linejoin:miter;stroke-opacity:1"
       d="M 41.295638,37.704761 45.5,26.610572"
       id="path49" /></g></svg>
