<?xml version="1.0" encoding="UTF-8" standalone="no"?>
<!-- Created with Inkscape (http://www.inkscape.org/) -->

<svg
   width="48"
   height="48"
   viewBox="0 0 48 48.000002"
   version="1.1"
   id="svg5"
   inkscape:version="1.3.2 (091e20ef0f, 2023-11-25)"
   xml:space="preserve"
   sodipodi:docname="atari.svg"
   xmlns:inkscape="http://www.inkscape.org/namespaces/inkscape"
   xmlns:sodipodi="http://sodipodi.sourceforge.net/DTD/sodipodi-0.dtd"
   xmlns="http://www.w3.org/2000/svg"
   xmlns:svg="http://www.w3.org/2000/svg"><sodipodi:namedview
     id="namedview7"
     pagecolor="#505050"
     bordercolor="#eeeeee"
     borderopacity="1"
     inkscape:pageshadow="0"
     inkscape:pageopacity="0"
     inkscape:pagecheckerboard="0"
     inkscape:document-units="px"
     showgrid="false"
     units="px"
     inkscape:zoom="7.7712181"
     inkscape:cx="11.066476"
     inkscape:cy="17.500474"
     inkscape:window-width="1896"
     inkscape:window-height="1035"
     inkscape:window-x="10"
     inkscape:window-y="31"
     inkscape:window-maximized="1"
     inkscape:current-layer="layer1"
     inkscape:showpageshadow="0"
     inkscape:deskcolor="#d1d1d1"
     showguides="true" /><defs
     id="defs2"><inkscape:path-effect
       effect="fillet_chamfer"
       id="path-effect17"
       is_visible="true"
       lpeversion="1"
       nodesatellites_param="F,0,0,1,0,0,0,1 @ F,0,0,1,0,2,0,1 @ F,0,0,1,0,2,0,1 @ F,0,0,1,0,0,0,1"
       radius="2"
       unit="px"
       method="auto"
       mode="F"
       chamfer_steps="1"
       flexible="false"
       use_knot_distance="true"
       apply_no_radius="true"
       apply_with_radius="true"
       only_selected="false"
       hide_knots="false" /><inkscape:path-effect
       effect="fillet_chamfer"
       id="path-effect16"
       is_visible="true"
       lpeversion="1"
       nodesatellites_param="F,0,1,1,0,0,0,1 @ F,0,1,1,0,3,0,1 @ F,0,1,1,0,3,0,1 @ F,0,0,1,0,0,0,1 @ F,0,1,1,0,3,0,1 @ F,0,1,1,0,3,0,1 @ F,0,0,1,0,0,0,1"
       radius="3"
       unit="px"
       method="auto"
       mode="F"
       chamfer_steps="1"
       flexible="false"
       use_knot_distance="true"
       apply_no_radius="true"
       apply_with_radius="true"
       only_selected="true"
       hide_knots="false" /></defs><g
     inkscape:label="Layer 1"
     inkscape:groupmode="layer"
     id="layer1"><g
       id="g3"
       transform="matrix(0.99999534,0,0,0.9999975,1.1183794e-4,6.0237827e-5)"
       style="stroke-width:1.00001"><path
         style="fill:none;stroke:#ffffff;stroke-width:0.999998;stroke-linecap:round;stroke-linejoin:round"
         d="m 20.806143,18.575737 c -5.593465,0.87815 -9.730366,4.008993 -9.730366,7.738573 0,4.410459 5.784692,7.985283 12.922801,7.985283 7.138106,0 12.925925,-3.574824 12.925925,-7.985283 0,-3.728909 -4.13462,-6.859769 -9.727242,-7.738573"
         id="path2" /><path
         id="ellipse3"
         style="fill:none;stroke:#ffffff;stroke-width:0.999998;stroke-linecap:round;stroke-linejoin:round"
         d="m 20.806143,21.045959 c -2.853662,0.746953 -4.851126,2.462971 -4.851126,4.46264 0,2.685748 3.599789,4.862372 8.043561,4.862372 4.443773,0 8.046686,-2.176624 8.046686,-4.862372 0,-1.998797 -1.995451,-3.712045 -4.848003,-4.459517"
         sodipodi:nodetypes="csssc" /><path
         id="path7"
         style="fill:none;stroke:#ffffff;stroke-width:0.999998;stroke-linecap:round;stroke-linejoin:round"
         d="m 15.265831,17.529814 a 2.0946002,1.2062479 0 0 1 -2.094599,1.206247 2.0946002,1.2062479 0 0 1 -2.094601,-1.206247 2.0946002,1.2062479 0 0 1 2.094601,-1.206247 2.0946002,1.2062479 0 0 1 2.094599,1.206247 z" /><path
         id="path13"
         style="fill:none;stroke:#ffffff;stroke-width:0.999998px;stroke-linecap:round;stroke-linejoin:round;stroke-opacity:1"
         d="m 27.19633,4.0965691 4.65e-4,18.6853359 -1.564515,1.596199 H 24.001702 22.371124 L 20.80625,22.781905 20.806357,4.0965691 M 22.40334,2.4999972 20.806357,4.0965691 22.37133,5.6611416 h 1.630014 1.630013 L 27.19633,4.0965691 25.599347,2.4999972 h -1.598003 z" /><g
         id="g2"
         style="stroke-width:1.00001"><path
           id="path1"
           style="fill:none;stroke:#ffffff;stroke-width:1.00378px;stroke-linecap:round;stroke-linejoin:round;stroke-opacity:1"
           d="m 20.792696,14.580152 h -8.23466 A 3.909704,3.909704 142.5002 0 0 8.7815586,17.477924 L 3.6777499,36.525073 a 2.3019646,2.3019646 52.500197 0 0 2.2235229,2.897772 H 23.997224 42.096311 a 2.301684,2.301684 127.49643 0 0 2.223182,-2.897681 L 39.213231,17.477833 a 3.9101806,3.9101806 37.49643 0 0 -3.776818,-2.897681 l -8.22839,0"
           inkscape:path-effect="#path-effect16"
           inkscape:original-d="M 20.792696,14.580152 H 9.5580357 L 2.9012728,39.422845 H 23.997224 45.096311 L 38.436413,14.580152 h -11.22839"
           transform="matrix(0.99622635,0,0,0.99623128,0.09191123,0.00948636)"
           sodipodi:nodetypes="ccccccc" /><path
           style="fill:none;stroke:#ffffff;stroke-width:1.00379px;stroke-linecap:butt;stroke-linejoin:miter;stroke-opacity:1"
           d="m 3.6684889,37.680985 1.5155948,6.041722 a 2.5636777,2.5636777 37.958836 0 0 2.4866317,1.939894 H 40.329285 a 2.5628568,2.5628568 142.03227 0 0 2.486029,-1.940045 l 1.513683,-6.042052"
           id="path16"
           sodipodi:nodetypes="cc"
           inkscape:path-effect="#path-effect17"
           inkscape:original-d="m 3.6684889,37.680985 2.0022265,7.981616 H 42.329285 l 1.999712,-7.982097"
           transform="matrix(0.99622635,0,0,0.99623128,0.09191123,0.00948636)" /></g><path
         id="path17"
         style="fill:none;stroke:#ffffff;stroke-width:0.999998;stroke-linecap:round;stroke-linejoin:round"
         d="m 20.806641,22.503906 c -1.09523,0.538132 -1.792969,1.348168 -1.792969,2.253906 0,1.621218 2.232179,2.933594 4.986328,2.933594 2.75415,0 4.986328,-1.312376 4.986328,-2.933594 0,-0.90491 -0.695378,-1.714182 -1.789062,-2.251953"
         sodipodi:nodetypes="csssc" /></g></g></svg>
