<?xml version="1.0" encoding="UTF-8" standalone="no"?>
<!-- Created with Inkscape (http://www.inkscape.org/) -->

<svg
   width="48"
   height="48"
   viewBox="0 0 48 48.000002"
   version="1.1"
   id="svg5"
   inkscape:version="1.3.2 (091e20ef0f, 2023-11-25)"
   xml:space="preserve"
   sodipodi:docname="ws.svg"
   xmlns:inkscape="http://www.inkscape.org/namespaces/inkscape"
   xmlns:sodipodi="http://sodipodi.sourceforge.net/DTD/sodipodi-0.dtd"
   xmlns="http://www.w3.org/2000/svg"
   xmlns:svg="http://www.w3.org/2000/svg"><sodipodi:namedview
     id="namedview7"
     pagecolor="#505050"
     bordercolor="#eeeeee"
     borderopacity="1"
     inkscape:pageshadow="0"
     inkscape:pageopacity="0"
     inkscape:pagecheckerboard="0"
     inkscape:document-units="px"
     showgrid="false"
     units="px"
     inkscape:zoom="22.769923"
     inkscape:cx="36.012419"
     inkscape:cy="26.921479"
     inkscape:window-width="1896"
     inkscape:window-height="1035"
     inkscape:window-x="10"
     inkscape:window-y="31"
     inkscape:window-maximized="1"
     inkscape:current-layer="layer1"
     inkscape:showpageshadow="0"
     inkscape:deskcolor="#d1d1d1"
     showguides="true"><sodipodi:guide
       position="-10.11891,24"
       orientation="0,1"
       id="guide1"
       inkscape:locked="false"
       inkscape:label=""
       inkscape:color="rgb(0,134,229)" /><sodipodi:guide
       position="-13.216535,30.033774"
       orientation="1,0"
       id="guide2"
       inkscape:locked="false" /><sodipodi:guide
       position="24,34.279849"
       orientation="-1,0"
       id="guide3"
       inkscape:locked="false"
       inkscape:label=""
       inkscape:color="rgb(0,134,229)" /></sodipodi:namedview><defs
     id="defs2" /><g
     inkscape:label="Layer 1"
     inkscape:groupmode="layer"
     id="layer1"><path
       style="fill:none;stroke:#ffffff;stroke-width:1px;stroke-linecap:round;stroke-linejoin:round;stroke-opacity:1"
       d="m 24.102274,11.522498 c 0,0 -12.9891,0 -17.490704,0 -4.5016041,0 -4.1013292,8.023079 -4.1013292,12.267834 0,4.244755 0.6263719,10.507508 3.6202723,11.796849 2.9939004,1.289342 4.3790339,0.922723 8.4298159,0.922723 4.050783,0 4.511019,-0.812931 9.541945,-0.812931 5.030926,0 1.977714,1.146274 11.606445,0.764222 9.628731,-0.382052 9.791282,-4.27553 9.791282,-12.670863 0,-8.395333 0,-6.480491 0,-9.430298 0,-2.949807 -2.428039,-2.918131 -4.821516,-2.918131 -2.393478,0 -16.576211,0.0806 -16.576211,0.0806 z"
       id="path3" /><ellipse
       style="fill:none;stroke:#ffffff;stroke-width:1;stroke-linecap:round;stroke-linejoin:round"
       id="path4"
       cx="41.87233"
       cy="15.60334"
       rx="1.6197822"
       ry="1.6181929" /><g
       id="g10"
       style="stroke-width:0.858888"
       transform="matrix(1.1648489,0,0,1.1637453,-0.00784373,-2.0116489)"><g
         id="g7"
         style="stroke-width:0.858888"><path
           style="fill:none;stroke:#ffffff;stroke-width:0.858888px;stroke-linecap:butt;stroke-linejoin:round;stroke-opacity:1"
           d="m 4.5271399,15.306804 1.2716914,1.310239 -1.2716915,1.31024 c -1.0859848,-1.205174 -0.289016,-2.485131 1e-7,-2.620479 z"
           id="path6"
           sodipodi:nodetypes="ccc" /><path
           style="fill:none;stroke:#ffffff;stroke-width:0.858888px;stroke-linecap:butt;stroke-linejoin:round;stroke-opacity:1"
           d="m 9.360994,15.306804 -1.2716914,1.310239 1.2716915,1.31024 c 1.0859849,-1.205174 0.2890161,-2.485131 -10e-8,-2.620479 z"
           id="path7"
           sodipodi:nodetypes="ccc" /></g><g
         id="g9"
         transform="rotate(90,6.944067,16.617037)"
         style="stroke-width:0.858888"><path
           style="fill:none;stroke:#ffffff;stroke-width:0.858888px;stroke-linecap:butt;stroke-linejoin:round;stroke-opacity:1"
           d="m 4.5271399,15.306804 1.2716914,1.310239 -1.2716915,1.31024 c -1.0859848,-1.205174 -0.289016,-2.485131 1e-7,-2.620479 z"
           id="path8"
           sodipodi:nodetypes="ccc" /><path
           style="fill:none;stroke:#ffffff;stroke-width:0.858888px;stroke-linecap:butt;stroke-linejoin:round;stroke-opacity:1"
           d="m 9.360994,15.306804 -1.2716914,1.310239 1.2716915,1.31024 c 1.0859849,-1.205174 0.2890161,-2.485131 -10e-8,-2.620479 z"
           id="path9"
           sodipodi:nodetypes="ccc" /></g></g><g
       id="g24"
       transform="translate(-0.30951855)"><path
         style="fill:none;stroke:#ffffff;stroke-width:1px;stroke-linecap:butt;stroke-linejoin:round;stroke-opacity:1"
         d="m 43.369697,27.714427 -1.194551,1.229553 1.194551,1.229554 c 1.02011,-1.130958 0.271485,-2.332094 0,-2.459107 z"
         id="path14"
         sodipodi:nodetypes="ccc" /><path
         style="fill:none;stroke:#ffffff;stroke-width:1px;stroke-linecap:butt;stroke-linejoin:round;stroke-opacity:1"
         d="M 41.994322,31.749139 40.763562,30.55576 39.5328,31.74914 c 1.132069,1.019108 2.334384,0.271218 2.461522,-1e-6 z"
         id="path15"
         sodipodi:nodetypes="ccc" /></g><rect
       style="fill:none;stroke:#ffffff;stroke-width:1;stroke-linecap:round;stroke-linejoin:round"
       id="rect3"
       width="18.279598"
       height="11.760633"
       x="16.511227"
       y="17.028879"
       ry="0.51680857" /><path
       style="fill:none;stroke:#ffffff;stroke-width:1px;stroke-linecap:round;stroke-linejoin:round;stroke-opacity:1"
       d="m 37.910105,22.726885 c 0,6.345564 -0.744239,8.359088 -2.103393,8.987943 -1.359153,0.628855 -8.1637,0.818874 -8.1637,0.818874 -0.735864,0 -0.416293,-1.116662 -1.127114,-1.116662 h -1.347575 c -0.511267,0 -0.457372,0.788173 -1.504384,0.788173 -0.792755,0 -0.649147,-0.889164 -1.571249,-0.909344 h -4.297767 c -1.076304,0 -0.908533,1.53357 -1.775291,1.548813 -0.894082,0.01572 -2.165366,-2.171952 -2.363005,-8.844681 -0.19764,-6.67273 0.778275,-9.950548 2.012437,-10.477665 1.234162,-0.527116 13.985455,0.308307 17.449089,0.526938 3.463635,0.218632 3.418998,0.834735 3.718031,1.357284 0.299033,0.522549 1.073921,4.678212 1.073921,7.320327 z"
       id="path5"
       sodipodi:nodetypes="sscccsccssssss" /><path
       style="fill:none;stroke:#ffffff;stroke-width:1px;stroke-linecap:round;stroke-linejoin:miter;stroke-opacity:1"
       d="m 17.971848,33.189694 h 1.128871"
       id="path16" /><path
       style="fill:none;stroke:#ffffff;stroke-width:1px;stroke-linecap:round;stroke-linejoin:miter;stroke-opacity:1"
       d="m 21.138368,33.189694 h 1.128871"
       id="path17" /><path
       style="fill:none;stroke:#ffffff;stroke-width:1px;stroke-linecap:round;stroke-linejoin:miter;stroke-opacity:1"
       d="m 24.973945,33.189694 h 0.739864"
       id="path18"
       sodipodi:nodetypes="cc" /><g
       id="g23"
       style="stroke-width:0.858888"
       transform="matrix(1.1648489,0,0,1.1637453,0.34399358,10.811984)"><g
         id="g20"
         style="stroke-width:0.858888"><path
           style="fill:none;stroke:#ffffff;stroke-width:0.858888px;stroke-linecap:butt;stroke-linejoin:round;stroke-opacity:1"
           d="m 4.5271399,15.306804 1.2716914,1.310239 -1.2716915,1.31024 c -1.0859848,-1.205174 -0.289016,-2.485131 1e-7,-2.620479 z"
           id="path19"
           sodipodi:nodetypes="ccc" /><path
           style="fill:none;stroke:#ffffff;stroke-width:0.858888px;stroke-linecap:butt;stroke-linejoin:round;stroke-opacity:1"
           d="m 9.360994,15.306804 -1.2716914,1.310239 1.2716915,1.31024 c 1.0859849,-1.205174 0.2890161,-2.485131 -10e-8,-2.620479 z"
           id="path20"
           sodipodi:nodetypes="ccc" /></g><g
         id="g22"
         transform="rotate(90,6.944067,16.617037)"
         style="stroke-width:0.858888"><path
           style="fill:none;stroke:#ffffff;stroke-width:0.858888px;stroke-linecap:butt;stroke-linejoin:round;stroke-opacity:1"
           d="m 4.5271399,15.306804 1.2716914,1.310239 -1.2716915,1.31024 c -1.0859848,-1.205174 -0.289016,-2.485131 1e-7,-2.620479 z"
           id="path21"
           sodipodi:nodetypes="ccc" /><path
           style="fill:none;stroke:#ffffff;stroke-width:0.858888px;stroke-linecap:butt;stroke-linejoin:round;stroke-opacity:1"
           d="m 9.360994,15.306804 -1.2716914,1.310239 1.2716915,1.31024 c 1.0859849,-1.205174 0.2890161,-2.485131 -10e-8,-2.620479 z"
           id="path22"
           sodipodi:nodetypes="ccc" /></g></g></g></svg>
